<?xml version="1.0" encoding="utf-8" standalone="no"?>
<!DOCTYPE svg PUBLIC "-//W3C//DTD SVG 1.1//EN"
  "http://www.w3.org/Graphics/SVG/1.1/DTD/svg11.dtd">
<svg xmlns:xlink="http://www.w3.org/1999/xlink" width="460.8pt" height="345.6pt" viewBox="0 0 460.8 345.6" xmlns="http://www.w3.org/2000/svg" version="1.1">
 <metadata>
  <rdf:RDF xmlns:dc="http://purl.org/dc/elements/1.1/" xmlns:cc="http://creativecommons.org/ns#" xmlns:rdf="http://www.w3.org/1999/02/22-rdf-syntax-ns#">
   <cc:Work>
    <dc:type rdf:resource="http://purl.org/dc/dcmitype/StillImage"/>
    <dc:date>2024-05-09T18:21:21.321077</dc:date>
    <dc:format>image/svg+xml</dc:format>
    <dc:creator>
     <cc:Agent>
      <dc:title>Matplotlib v3.8.4, https://matplotlib.org/</dc:title>
     </cc:Agent>
    </dc:creator>
   </cc:Work>
  </rdf:RDF>
 </metadata>
 <defs>
  <style type="text/css">*{stroke-linejoin: round; stroke-linecap: butt}</style>
 </defs>
 <g id="figure_1">
  <g id="patch_1">
   <path d="M 0 345.6 
L 460.8 345.6 
L 460.8 0 
L 0 0 
z
" style="fill: #ffffff"/>
  </g>
  <g id="axes_1">
   <g id="patch_2">
    <path d="M 57.6 307.584 
L 414.72 307.584 
L 414.72 41.472 
L 57.6 41.472 
z
" style="fill: #ffffff"/>
   </g>
   <g id="patch_3">
    <path d="M 73.832727 307.584 
L 218.123636 307.584 
L 218.123636 232.851692 
L 73.832727 232.851692 
z
" clip-path="url(#p71e7ad8d08)" style="fill: #8e8444; fill-opacity: 0.75"/>
   </g>
   <g id="patch_4">
    <path d="M 254.196364 307.584 
L 398.487273 307.584 
L 398.487273 219.854769 
L 254.196364 219.854769 
z
" clip-path="url(#p71e7ad8d08)" style="fill: #8e8444; fill-opacity: 0.75"/>
   </g>
   <g id="patch_5">
    <path d="M 73.832727 232.851692 
L 218.123636 232.851692 
L 218.123636 149.996308 
L 73.832727 149.996308 
z
" clip-path="url(#p71e7ad8d08)" style="fill: #ffb703; fill-opacity: 0.75"/>
   </g>
   <g id="patch_6">
    <path d="M 254.196364 219.854769 
L 398.487273 219.854769 
L 398.487273 128.876308 
L 254.196364 128.876308 
z
" clip-path="url(#p71e7ad8d08)" style="fill: #ffb703; fill-opacity: 0.75"/>
   </g>
   <g id="patch_7">
    <path d="M 73.832727 149.996308 
L 218.123636 149.996308 
L 218.123636 73.639385 
L 73.832727 73.639385 
z
" clip-path="url(#p71e7ad8d08)" style="fill: #fb8500; fill-opacity: 0.75"/>
   </g>
   <g id="patch_8">
    <path d="M 254.196364 128.876308 
L 398.487273 128.876308 
L 398.487273 54.144 
L 254.196364 54.144 
z
" clip-path="url(#p71e7ad8d08)" style="fill: #fb8500; fill-opacity: 0.75"/>
   </g>
   <g id="matplotlib.axis_1">
    <g id="xtick_1">
     <g id="line2d_1">
      <defs>
       <path id="m28215333a4" d="M 0 0 
L 0 3.5 
" style="stroke: #000000; stroke-width: 0.8"/>
      </defs>
      <g>
       <use xlink:href="#m28215333a4" x="145.978182" y="307.584" style="stroke: #000000; stroke-width: 0.8"/>
      </g>
     </g>
     <g id="text_1">
      <!-- Male -->
      <g transform="translate(134.472713 322.104312) scale(0.1 -0.1)">
       <defs>
        <path id="NanumGothic-4d" d="M 5523 -186 
Q 5523 -275 5434 -275 
L 5146 -275 
Q 5056 -275 5056 -186 
L 5056 4058 
Q 4582 2880 4205 1952 
Q 4045 1555 3891 1174 
Q 3738 794 3616 496 
Q 3494 198 3417 12 
Q 3341 -173 3341 -179 
Q 3309 -243 3245 -243 
L 2957 -243 
Q 2912 -243 2893 -227 
Q 2874 -211 2861 -179 
L 1094 4058 
L 1094 -186 
Q 1094 -275 1005 -275 
L 717 -275 
Q 627 -275 627 -186 
L 627 4294 
Q 627 4429 649 4451 
Q 672 4474 806 4474 
L 1286 4474 
Q 1338 4474 1360 4461 
Q 1382 4448 1402 4397 
L 3104 256 
L 4755 4403 
Q 4781 4474 4858 4474 
L 5344 4474 
Q 5478 4474 5500 4451 
Q 5523 4429 5523 4294 
L 5523 -186 
z
" transform="scale(0.015625)"/>
        <path id="NanumGothic-61" d="M 2566 1530 
L 2445 1530 
Q 2086 1542 1808 1500 
Q 1530 1459 1344 1389 
Q 1075 1293 940 1104 
Q 806 915 806 653 
Q 806 493 857 355 
Q 909 218 1018 141 
Q 1210 -13 1530 -13 
Q 1754 -13 1942 76 
Q 2131 166 2272 332 
Q 2413 499 2489 745 
Q 2566 992 2566 1312 
L 2566 1530 
z
M 742 2650 
Q 710 2630 681 2640 
Q 653 2650 653 2682 
L 653 2925 
Q 653 3014 742 3059 
Q 966 3181 1219 3229 
Q 1472 3277 1773 3277 
Q 2413 3277 2707 2973 
Q 3002 2669 3002 2054 
L 3002 448 
Q 3002 256 3008 105 
Q 3014 -45 3027 -186 
Q 3027 -275 2938 -275 
L 2707 -275 
Q 2618 -275 2618 -186 
L 2618 307 
Q 2483 -19 2166 -198 
Q 1850 -378 1478 -378 
Q 832 -378 531 0 
Q 429 128 377 297 
Q 326 467 326 634 
Q 326 1024 508 1305 
Q 691 1587 1069 1728 
Q 1530 1894 2483 1894 
L 2566 1894 
L 2566 2086 
Q 2566 2490 2384 2701 
Q 2202 2912 1773 2912 
Q 1485 2912 1229 2851 
Q 973 2790 742 2650 
z
" transform="scale(0.015625)"/>
        <path id="NanumGothic-6c" d="M 1056 -186 
Q 1056 -275 966 -275 
L 685 -275 
Q 595 -275 595 -186 
L 595 4723 
Q 595 4813 685 4813 
L 966 4813 
Q 1056 4813 1056 4723 
L 1056 -186 
z
" transform="scale(0.015625)"/>
        <path id="NanumGothic-65" d="M 2733 1696 
Q 2733 1958 2681 2163 
Q 2630 2368 2522 2534 
Q 2285 2912 1837 2912 
Q 1376 2912 1088 2528 
Q 973 2355 896 2131 
Q 819 1907 813 1696 
L 2733 1696 
z
M 813 1331 
Q 806 1011 886 764 
Q 966 518 1120 352 
Q 1274 186 1488 96 
Q 1702 6 1965 6 
Q 2221 6 2445 54 
Q 2669 102 2861 211 
Q 2944 250 2944 166 
L 2944 -122 
Q 2944 -179 2874 -211 
Q 2662 -294 2432 -336 
Q 2202 -378 1933 -378 
Q 1146 -378 742 80 
Q 339 538 339 1459 
Q 339 2272 742 2771 
Q 1165 3277 1811 3277 
Q 2170 3277 2432 3149 
Q 2694 3021 2880 2765 
Q 3206 2310 3206 1549 
Q 3206 1466 3203 1421 
Q 3200 1376 3181 1357 
Q 3162 1338 3114 1334 
Q 3066 1331 2976 1331 
L 813 1331 
z
" transform="scale(0.015625)"/>
       </defs>
       <use xlink:href="#NanumGothic-4d"/>
       <use xlink:href="#NanumGothic-61" x="96.899994"/>
       <use xlink:href="#NanumGothic-6c" x="151.399979"/>
       <use xlink:href="#NanumGothic-65" x="175.599976"/>
      </g>
     </g>
    </g>
    <g id="xtick_2">
     <g id="line2d_2">
      <g>
       <use xlink:href="#m28215333a4" x="326.341818" y="307.584" style="stroke: #000000; stroke-width: 0.8"/>
      </g>
     </g>
     <g id="text_2">
      <!-- Female -->
      <g transform="translate(309.901974 322.104312) scale(0.1 -0.1)">
       <defs>
        <path id="NanumGothic-46" d="M 1056 -186 
Q 1056 -275 966 -275 
L 672 -275 
Q 582 -275 582 -186 
L 582 4275 
Q 582 4416 604 4438 
Q 627 4461 768 4461 
L 2906 4461 
Q 2995 4461 2995 4371 
L 2995 4154 
Q 2995 4064 2906 4064 
L 1056 4064 
L 1056 2368 
L 2816 2368 
Q 2906 2368 2906 2278 
L 2906 2048 
Q 2906 1958 2816 1958 
L 1056 1958 
L 1056 -186 
z
" transform="scale(0.015625)"/>
        <path id="NanumGothic-6d" d="M 602 2374 
Q 602 2643 595 2800 
Q 589 2957 576 3098 
Q 576 3187 666 3187 
L 902 3187 
Q 992 3187 992 3098 
L 992 2752 
Q 1139 2989 1388 3126 
Q 1638 3264 2003 3264 
Q 2387 3264 2675 3075 
Q 2963 2886 3027 2522 
Q 3162 2886 3459 3075 
Q 3757 3264 4147 3264 
Q 4397 3264 4598 3174 
Q 4800 3085 4944 2928 
Q 5088 2771 5165 2560 
Q 5242 2349 5242 2112 
L 5242 -186 
Q 5242 -275 5152 -275 
L 4909 -275 
Q 4819 -275 4819 -192 
L 4819 2022 
Q 4819 2899 4083 2899 
Q 3859 2899 3683 2800 
Q 3507 2701 3382 2528 
Q 3258 2355 3197 2124 
Q 3136 1894 3142 1638 
L 3142 -186 
Q 3142 -275 3053 -275 
L 2797 -275 
Q 2707 -275 2707 -186 
L 2707 2022 
Q 2707 2899 1965 2899 
Q 1530 2899 1280 2617 
Q 1030 2336 1030 1875 
L 1030 -186 
Q 1030 -275 941 -275 
L 691 -275 
Q 602 -275 602 -186 
L 602 2374 
z
" transform="scale(0.015625)"/>
       </defs>
       <use xlink:href="#NanumGothic-46"/>
       <use xlink:href="#NanumGothic-65" x="50.299988"/>
       <use xlink:href="#NanumGothic-6d" x="104.799973"/>
       <use xlink:href="#NanumGothic-61" x="195.59996"/>
       <use xlink:href="#NanumGothic-6c" x="250.099945"/>
       <use xlink:href="#NanumGothic-65" x="274.299942"/>
      </g>
     </g>
    </g>
    <g id="text_3">
     <!-- 성별 -->
     <g transform="translate(226.76 335.584) scale(0.1 -0.1)">
      <defs>
       <path id="NanumGothic-c131" d="M 5203 250 
Q 5203 -26 5056 -243 
Q 4909 -461 4656 -611 
Q 4403 -762 4067 -842 
Q 3731 -922 3347 -922 
Q 2931 -922 2592 -842 
Q 2253 -762 2009 -611 
Q 1766 -461 1632 -243 
Q 1498 -26 1498 250 
Q 1498 518 1632 732 
Q 1766 947 2009 1097 
Q 2253 1248 2592 1328 
Q 2931 1408 3347 1408 
Q 3731 1408 4067 1328 
Q 4403 1248 4656 1101 
Q 4909 954 5056 739 
Q 5203 525 5203 250 
z
M 4749 230 
Q 4749 422 4633 569 
Q 4518 717 4323 816 
Q 4128 915 3872 969 
Q 3616 1024 3341 1024 
Q 3034 1024 2778 969 
Q 2522 915 2339 816 
Q 2157 717 2054 569 
Q 1952 422 1952 230 
Q 1952 45 2054 -99 
Q 2157 -243 2339 -339 
Q 2522 -435 2778 -486 
Q 3034 -538 3341 -538 
Q 3616 -538 3872 -486 
Q 4128 -435 4323 -339 
Q 4518 -243 4633 -99 
Q 4749 45 4749 230 
z
M 2387 4774 
Q 2387 4307 2291 3904 
Q 2368 3635 2505 3392 
Q 2643 3149 2828 2937 
Q 3014 2726 3235 2556 
Q 3456 2387 3699 2272 
Q 3738 2253 3734 2217 
Q 3731 2182 3718 2157 
L 3584 1946 
Q 3565 1914 3539 1901 
Q 3514 1888 3456 1920 
Q 3309 1997 3120 2128 
Q 2931 2259 2739 2438 
Q 2547 2618 2374 2832 
Q 2202 3046 2086 3277 
Q 1875 2790 1516 2393 
Q 1158 1997 678 1683 
Q 646 1664 608 1657 
Q 570 1651 544 1683 
L 384 1894 
Q 365 1920 377 1958 
Q 390 1997 422 2016 
Q 1184 2483 1568 3193 
Q 1952 3904 1939 4781 
Q 1939 4883 2016 4883 
L 2317 4864 
Q 2387 4864 2387 4774 
z
M 4710 3622 
L 4710 4915 
Q 4710 5005 4800 5005 
L 5062 5005 
Q 5152 5005 5152 4915 
L 5152 1536 
Q 5152 1446 5062 1446 
L 4800 1446 
Q 4710 1446 4710 1536 
L 4710 3238 
L 3398 3238 
Q 3315 3238 3315 3315 
L 3315 3546 
Q 3315 3622 3398 3622 
L 4710 3622 
z
" transform="scale(0.015625)"/>
       <path id="NanumGothic-bcc4" d="M 1190 2106 
Q 1037 2106 944 2125 
Q 851 2144 800 2198 
Q 749 2253 729 2339 
Q 710 2426 710 2560 
L 710 4838 
Q 710 4870 736 4892 
Q 762 4915 794 4915 
L 1069 4915 
Q 1101 4915 1123 4889 
Q 1146 4864 1146 4838 
L 1146 3821 
L 3014 3821 
L 3014 4832 
Q 3014 4864 3036 4889 
Q 3059 4915 3091 4915 
L 3366 4915 
Q 3398 4915 3424 4892 
Q 3450 4870 3450 4838 
L 3450 4102 
L 4710 4102 
L 4710 4915 
Q 4710 5005 4800 5005 
L 5062 5005 
Q 5152 5005 5152 4915 
L 5152 1997 
Q 5152 1907 5062 1907 
L 4800 1907 
Q 4710 1907 4710 1997 
L 4710 2688 
L 3450 2688 
L 3450 2515 
Q 3450 2272 3347 2189 
Q 3245 2106 2963 2106 
L 1190 2106 
z
M 5286 -838 
Q 5286 -870 5257 -892 
Q 5229 -915 5203 -915 
L 1978 -915 
Q 1677 -915 1584 -803 
Q 1491 -691 1491 -422 
L 1491 58 
Q 1491 326 1603 419 
Q 1715 512 2003 512 
L 4570 512 
Q 4659 512 4684 537 
Q 4710 563 4710 659 
L 4710 1024 
Q 4710 1120 4688 1145 
Q 4666 1171 4576 1171 
L 1568 1171 
Q 1536 1171 1507 1190 
Q 1478 1210 1478 1242 
L 1478 1472 
Q 1478 1504 1507 1523 
Q 1536 1542 1568 1542 
L 4646 1542 
Q 4800 1542 4896 1520 
Q 4992 1498 5049 1446 
Q 5107 1395 5129 1302 
Q 5152 1210 5152 1075 
L 5152 595 
Q 5152 326 5040 233 
Q 4928 141 4640 141 
L 2074 141 
Q 1984 141 1961 115 
Q 1939 90 1939 -6 
L 1939 -397 
Q 1939 -486 1964 -515 
Q 1990 -544 2080 -544 
L 5197 -544 
Q 5229 -544 5257 -563 
Q 5286 -582 5286 -614 
L 5286 -838 
z
M 1146 3443 
L 1146 2637 
Q 1146 2541 1178 2512 
Q 1210 2483 1299 2483 
L 2861 2483 
Q 2950 2483 2982 2512 
Q 3014 2541 3014 2637 
L 3014 3443 
L 1146 3443 
z
M 3450 3066 
L 4710 3066 
L 4710 3725 
L 3450 3725 
L 3450 3066 
z
" transform="scale(0.015625)"/>
      </defs>
      <use xlink:href="#NanumGothic-c131"/>
      <use xlink:href="#NanumGothic-bcc4" x="93.999985"/>
     </g>
    </g>
   </g>
   <g id="matplotlib.axis_2">
    <g id="ytick_1">
     <g id="line2d_3">
      <defs>
       <path id="m48d6f3ab7b" d="M 0 0 
L -3.5 0 
" style="stroke: #000000; stroke-width: 0.8"/>
      </defs>
      <g>
       <use xlink:href="#m48d6f3ab7b" x="57.6" y="307.584" style="stroke: #000000; stroke-width: 0.8"/>
      </g>
     </g>
     <g id="text_4">
      <!-- 0 -->
      <g transform="translate(44.540625 311.344156) scale(0.1 -0.1)">
       <defs>
        <path id="NanumGothic-30" d="M 3066 2093 
Q 3066 4102 1965 4102 
Q 864 4102 864 2093 
Q 864 77 1965 77 
Q 3066 77 3066 2093 
z
M 3526 2093 
Q 3526 -326 1965 -326 
Q 390 -326 390 2093 
Q 390 3098 698 3725 
Q 1088 4512 1965 4512 
Q 2829 4512 3226 3725 
Q 3373 3411 3449 3008 
Q 3526 2605 3526 2093 
z
" transform="scale(0.015625)"/>
       </defs>
       <use xlink:href="#NanumGothic-30"/>
      </g>
     </g>
    </g>
    <g id="ytick_2">
     <g id="line2d_4">
      <g>
       <use xlink:href="#m48d6f3ab7b" x="57.6" y="258.845538" style="stroke: #000000; stroke-width: 0.8"/>
      </g>
     </g>
     <g id="text_5">
      <!-- 10 -->
      <g transform="translate(38.48125 262.605695) scale(0.1 -0.1)">
       <defs>
        <path id="NanumGothic-31" d="M 2362 -211 
Q 2362 -301 2272 -301 
L 2010 -301 
Q 1920 -301 1920 -211 
L 1920 3949 
Q 1722 3782 1549 3635 
Q 1376 3488 1184 3322 
Q 1114 3264 1056 3334 
L 928 3488 
Q 909 3520 909 3555 
Q 909 3590 941 3616 
L 1933 4448 
Q 1958 4474 2010 4474 
L 2182 4474 
Q 2317 4474 2339 4451 
Q 2362 4429 2362 4294 
L 2362 -211 
z
" transform="scale(0.015625)"/>
       </defs>
       <use xlink:href="#NanumGothic-31"/>
       <use xlink:href="#NanumGothic-30" x="60.599991"/>
      </g>
     </g>
    </g>
    <g id="ytick_3">
     <g id="line2d_5">
      <g>
       <use xlink:href="#m48d6f3ab7b" x="57.6" y="210.107077" style="stroke: #000000; stroke-width: 0.8"/>
      </g>
     </g>
     <g id="text_6">
      <!-- 20 -->
      <g transform="translate(38.48125 213.867233) scale(0.1 -0.1)">
       <defs>
        <path id="NanumGothic-32" d="M 576 -301 
Q 506 -301 470 -297 
Q 435 -294 419 -278 
Q 403 -262 400 -227 
Q 397 -192 397 -122 
L 403 19 
Q 403 102 454 154 
L 1510 1318 
Q 2688 2592 2688 3251 
Q 2688 3635 2432 3891 
Q 2182 4141 1811 4141 
Q 1293 4141 730 3853 
Q 640 3808 627 3891 
L 589 4102 
Q 570 4211 653 4237 
Q 979 4384 1241 4454 
Q 1504 4525 1779 4525 
Q 2394 4525 2758 4218 
Q 3168 3885 3168 3270 
Q 3168 3034 3053 2752 
Q 2938 2470 2733 2163 
Q 2605 1984 2371 1696 
Q 2138 1408 1837 1082 
Q 1613 838 1392 588 
Q 1171 339 947 96 
L 3187 96 
Q 3277 96 3277 6 
L 3277 -211 
Q 3277 -301 3187 -301 
L 576 -301 
z
" transform="scale(0.015625)"/>
       </defs>
       <use xlink:href="#NanumGothic-32"/>
       <use xlink:href="#NanumGothic-30" x="60.599991"/>
      </g>
     </g>
    </g>
    <g id="ytick_4">
     <g id="line2d_6">
      <g>
       <use xlink:href="#m48d6f3ab7b" x="57.6" y="161.368615" style="stroke: #000000; stroke-width: 0.8"/>
      </g>
     </g>
     <g id="text_7">
      <!-- 30 -->
      <g transform="translate(38.48125 165.128772) scale(0.1 -0.1)">
       <defs>
        <path id="NanumGothic-33" d="M 493 -192 
Q 397 -166 410 -45 
L 435 205 
Q 448 282 538 243 
Q 806 134 1046 89 
Q 1286 45 1606 38 
Q 2112 32 2458 294 
Q 2861 563 2861 1082 
Q 2861 1990 1498 1990 
L 1165 1990 
Q 1082 1990 1082 2061 
L 1082 2298 
Q 1082 2381 1165 2381 
L 1197 2381 
Q 1882 2381 2266 2528 
Q 2848 2752 2848 3334 
Q 2848 3520 2749 3677 
Q 2650 3834 2483 3942 
Q 2330 4032 2138 4083 
Q 1946 4134 1734 4134 
Q 1517 4134 1254 4076 
Q 992 4019 749 3923 
Q 666 3891 653 3974 
L 627 4211 
Q 608 4301 710 4339 
Q 998 4435 1248 4480 
Q 1498 4525 1779 4525 
Q 2426 4525 2835 4250 
Q 3302 3936 3302 3334 
Q 3302 2906 2995 2592 
Q 2739 2317 2330 2189 
Q 2534 2163 2710 2080 
Q 2886 1997 3014 1850 
Q 3162 1690 3238 1488 
Q 3315 1286 3315 1043 
Q 3315 723 3184 464 
Q 3053 205 2810 19 
Q 2573 -154 2265 -253 
Q 1958 -352 1581 -346 
Q 1242 -339 995 -307 
Q 749 -275 493 -192 
z
" transform="scale(0.015625)"/>
       </defs>
       <use xlink:href="#NanumGothic-33"/>
       <use xlink:href="#NanumGothic-30" x="60.599991"/>
      </g>
     </g>
    </g>
    <g id="ytick_5">
     <g id="line2d_7">
      <g>
       <use xlink:href="#m48d6f3ab7b" x="57.6" y="112.630154" style="stroke: #000000; stroke-width: 0.8"/>
      </g>
     </g>
     <g id="text_8">
      <!-- 40 -->
      <g transform="translate(38.48125 116.39031) scale(0.1 -0.1)">
       <defs>
        <path id="NanumGothic-34" d="M 2509 1216 
L 2509 4070 
Q 2035 3354 1568 2643 
Q 1101 1933 621 1216 
L 2509 1216 
z
M 2944 -211 
Q 2944 -301 2854 -301 
L 2598 -301 
Q 2509 -301 2509 -211 
L 2509 826 
L 397 826 
Q 262 826 240 848 
Q 218 870 218 1005 
L 218 1203 
Q 218 1261 224 1280 
Q 230 1299 262 1350 
L 2304 4397 
Q 2342 4454 2358 4464 
Q 2374 4474 2445 4474 
L 2765 4474 
Q 2899 4474 2921 4451 
Q 2944 4429 2944 4294 
L 2944 1216 
L 3578 1216 
Q 3667 1216 3667 1126 
L 3667 915 
Q 3667 826 3578 826 
L 2944 826 
L 2944 -211 
z
" transform="scale(0.015625)"/>
       </defs>
       <use xlink:href="#NanumGothic-34"/>
       <use xlink:href="#NanumGothic-30" x="60.599991"/>
      </g>
     </g>
    </g>
    <g id="ytick_6">
     <g id="line2d_8">
      <g>
       <use xlink:href="#m48d6f3ab7b" x="57.6" y="63.891692" style="stroke: #000000; stroke-width: 0.8"/>
      </g>
     </g>
     <g id="text_9">
      <!-- 50 -->
      <g transform="translate(38.48125 67.651849) scale(0.1 -0.1)">
       <defs>
        <path id="NanumGothic-35" d="M 736 -205 
Q 646 -173 646 -90 
L 646 179 
Q 646 288 736 243 
Q 966 134 1187 89 
Q 1408 45 1670 45 
Q 2234 45 2586 320 
Q 2970 614 2970 1165 
Q 2970 2246 1734 2246 
Q 1491 2246 1296 2220 
Q 1101 2195 864 2131 
Q 794 2112 749 2147 
Q 704 2182 704 2253 
L 742 4294 
Q 742 4429 764 4451 
Q 787 4474 922 4474 
L 3110 4474 
Q 3200 4474 3200 4384 
L 3200 4173 
Q 3200 4083 3110 4083 
L 1178 4083 
Q 1171 3680 1161 3296 
Q 1152 2912 1146 2509 
Q 1459 2630 1907 2630 
Q 2579 2630 2995 2266 
Q 3411 1888 3411 1254 
Q 3411 480 2931 58 
Q 2470 -346 1670 -346 
Q 1382 -346 1171 -314 
Q 960 -282 736 -205 
z
" transform="scale(0.015625)"/>
       </defs>
       <use xlink:href="#NanumGothic-35"/>
       <use xlink:href="#NanumGothic-30" x="60.599991"/>
      </g>
     </g>
    </g>
    <g id="text_10">
     <!-- Percent -->
     <g transform="translate(32.521875 191.730344) rotate(-90) scale(0.1 -0.1)">
      <defs>
       <path id="NanumGothic-50" d="M 3008 3123 
Q 3008 3578 2771 3824 
Q 2534 4070 2074 4070 
L 1114 4070 
L 1114 2157 
L 1632 2157 
Q 1939 2157 2185 2189 
Q 2432 2221 2608 2323 
Q 2784 2426 2886 2614 
Q 2989 2803 3008 3123 
z
M 1114 -186 
Q 1114 -275 1024 -275 
L 736 -275 
Q 646 -275 646 -186 
L 646 4282 
Q 646 4422 675 4448 
Q 704 4474 838 4474 
L 1978 4474 
Q 2682 4474 3078 4134 
Q 3488 3782 3488 3123 
Q 3488 2790 3369 2531 
Q 3251 2272 3040 2096 
Q 2829 1920 2541 1830 
Q 2253 1741 1926 1754 
L 1114 1754 
L 1114 -186 
z
" transform="scale(0.015625)"/>
       <path id="NanumGothic-72" d="M 2221 2797 
Q 2106 2835 1914 2835 
Q 1440 2835 1210 2368 
Q 1030 2003 1030 1434 
L 1030 -186 
Q 1030 -275 941 -275 
L 691 -275 
Q 602 -275 602 -186 
L 602 2413 
Q 602 2643 598 2787 
Q 595 2931 589 3098 
Q 589 3187 678 3187 
L 915 3187 
Q 1005 3187 1005 3098 
L 1005 2470 
Q 1318 3277 1926 3277 
Q 2074 3277 2221 3238 
Q 2259 3226 2288 3197 
Q 2317 3168 2317 3117 
L 2317 2848 
Q 2317 2810 2285 2797 
Q 2253 2784 2221 2797 
z
" transform="scale(0.015625)"/>
       <path id="NanumGothic-63" d="M 2816 -301 
Q 2624 -333 2445 -345 
Q 2266 -358 2016 -358 
Q 1619 -358 1308 -217 
Q 998 -77 784 166 
Q 570 410 454 742 
Q 339 1075 339 1459 
Q 339 1850 460 2179 
Q 582 2509 809 2749 
Q 1037 2989 1353 3126 
Q 1670 3264 2067 3264 
Q 2278 3264 2451 3248 
Q 2624 3232 2822 3187 
Q 2912 3162 2906 3066 
L 2886 2861 
Q 2874 2784 2790 2803 
Q 2624 2854 2470 2876 
Q 2317 2899 2131 2899 
Q 1805 2899 1558 2793 
Q 1312 2688 1145 2496 
Q 979 2304 896 2038 
Q 813 1773 813 1459 
Q 813 1171 899 908 
Q 986 646 1149 444 
Q 1312 243 1545 124 
Q 1779 6 2080 6 
Q 2304 6 2451 25 
Q 2598 45 2784 96 
Q 2880 122 2886 51 
L 2906 -186 
Q 2912 -282 2816 -301 
z
" transform="scale(0.015625)"/>
       <path id="NanumGothic-6e" d="M 3334 -186 
Q 3334 -275 3245 -275 
L 2989 -275 
Q 2899 -275 2899 -186 
L 2899 1830 
Q 2899 2419 2688 2665 
Q 2477 2912 2093 2912 
Q 1574 2912 1302 2624 
Q 1030 2336 1030 1818 
L 1030 -186 
Q 1030 -275 941 -275 
L 685 -275 
Q 595 -275 595 -186 
L 595 2374 
Q 595 2650 592 2803 
Q 589 2957 576 3098 
Q 570 3142 598 3164 
Q 627 3187 666 3187 
L 896 3187 
Q 986 3187 986 3098 
L 986 2746 
Q 1165 3021 1417 3149 
Q 1670 3277 2112 3277 
Q 2720 3277 3027 2925 
Q 3334 2573 3334 1933 
L 3334 -186 
z
" transform="scale(0.015625)"/>
       <path id="NanumGothic-74" d="M 2208 -282 
Q 1939 -378 1677 -378 
Q 1158 -378 992 -38 
Q 883 192 883 774 
L 883 2816 
L 282 2816 
Q 192 2816 192 2906 
L 192 3098 
Q 192 3187 282 3187 
L 883 3187 
L 883 4051 
Q 883 4147 966 4147 
L 1235 4147 
Q 1318 4147 1318 4051 
L 1318 3187 
L 2029 3187 
Q 2118 3187 2118 3098 
L 2118 2906 
Q 2118 2816 2029 2816 
L 1318 2816 
L 1318 557 
Q 1318 -13 1779 -13 
Q 1958 -13 2182 64 
Q 2214 77 2243 64 
Q 2272 51 2272 13 
L 2285 -154 
Q 2298 -243 2208 -282 
z
" transform="scale(0.015625)"/>
      </defs>
      <use xlink:href="#NanumGothic-50"/>
      <use xlink:href="#NanumGothic-65" x="53.449997"/>
      <use xlink:href="#NanumGothic-72" x="107.949982"/>
      <use xlink:href="#NanumGothic-63" x="144.249969"/>
      <use xlink:href="#NanumGothic-65" x="192.649963"/>
      <use xlink:href="#NanumGothic-6e" x="247.149948"/>
      <use xlink:href="#NanumGothic-74" x="307.749939"/>
     </g>
    </g>
   </g>
   <g id="patch_9">
    <path d="M 57.6 307.584 
L 57.6 41.472 
" style="fill: none; stroke: #000000; stroke-width: 0.8; stroke-linejoin: miter; stroke-linecap: square"/>
   </g>
   <g id="patch_10">
    <path d="M 414.72 307.584 
L 414.72 41.472 
" style="fill: none; stroke: #000000; stroke-width: 0.8; stroke-linejoin: miter; stroke-linecap: square"/>
   </g>
   <g id="patch_11">
    <path d="M 57.6 307.584 
L 414.72 307.584 
" style="fill: none; stroke: #000000; stroke-width: 0.8; stroke-linejoin: miter; stroke-linecap: square"/>
   </g>
   <g id="patch_12">
    <path d="M 57.6 41.472 
L 414.72 41.472 
" style="fill: none; stroke: #000000; stroke-width: 0.8; stroke-linejoin: miter; stroke-linecap: square"/>
   </g>
   <g id="legend_1">
    <g id="patch_13">
     <path d="M 320.009063 107.49075 
L 407.72 107.49075 
Q 409.72 107.49075 409.72 105.49075 
L 409.72 48.472 
Q 409.72 46.472 407.72 46.472 
L 320.009063 46.472 
Q 318.009063 46.472 318.009063 48.472 
L 318.009063 105.49075 
Q 318.009063 107.49075 320.009063 107.49075 
z
" style="fill: #ffffff; opacity: 0.8; stroke: #cccccc; stroke-linejoin: miter"/>
    </g>
    <g id="text_11">
     <!-- 검사_결과 -->
     <g transform="translate(342.339531 58.092312) scale(0.1 -0.1)">
      <defs>
       <path id="NanumGothic-ac80" d="M 1498 819 
Q 1498 1088 1600 1181 
Q 1702 1274 1984 1274 
L 4666 1274 
Q 4819 1274 4912 1254 
Q 5005 1235 5059 1184 
Q 5114 1133 5133 1043 
Q 5152 954 5152 819 
L 5152 -390 
Q 5152 -659 5049 -752 
Q 4947 -845 4666 -845 
L 1984 -845 
Q 1830 -845 1737 -825 
Q 1645 -806 1590 -752 
Q 1536 -698 1517 -611 
Q 1498 -525 1498 -390 
L 1498 819 
z
M 2093 890 
Q 2003 890 1971 854 
Q 1939 819 1939 723 
L 1939 -294 
Q 1939 -390 1971 -425 
Q 2003 -461 2093 -461 
L 4557 -461 
Q 4646 -461 4678 -425 
Q 4710 -390 4710 -294 
L 4710 723 
Q 4710 819 4678 854 
Q 4646 890 4557 890 
L 2093 890 
z
M 3462 4275 
Q 3315 3386 2688 2707 
Q 2061 2029 870 1530 
Q 762 1485 730 1568 
L 634 1779 
Q 608 1830 630 1862 
Q 653 1894 685 1907 
Q 1702 2330 2281 2909 
Q 2861 3488 2982 4160 
Q 3021 4346 2829 4346 
L 858 4346 
Q 781 4346 781 4429 
L 781 4653 
Q 781 4730 858 4730 
L 2976 4730 
Q 3283 4730 3392 4621 
Q 3501 4512 3462 4275 
z
M 4710 3347 
L 4710 4915 
Q 4710 5005 4800 5005 
L 5062 5005 
Q 5152 5005 5152 4915 
L 5152 1702 
Q 5152 1613 5062 1613 
L 4800 1613 
Q 4710 1613 4710 1702 
L 4710 2963 
L 3405 2963 
Q 3322 2963 3322 3040 
L 3322 3270 
Q 3322 3347 3405 3347 
L 4710 3347 
z
" transform="scale(0.015625)"/>
       <path id="NanumGothic-c0ac" d="M 2285 4589 
Q 2285 4166 2249 3779 
Q 2214 3392 2138 3034 
Q 2202 2778 2336 2493 
Q 2470 2208 2652 1926 
Q 2835 1645 3062 1379 
Q 3290 1114 3546 902 
Q 3578 877 3581 838 
Q 3584 800 3565 774 
L 3405 576 
Q 3347 506 3270 576 
Q 3091 730 2902 944 
Q 2714 1158 2538 1395 
Q 2362 1632 2208 1881 
Q 2054 2131 1946 2362 
Q 1741 1779 1408 1289 
Q 1075 800 614 378 
Q 550 326 506 371 
L 314 570 
Q 294 589 297 621 
Q 301 653 333 685 
Q 723 1056 1011 1465 
Q 1299 1875 1481 2348 
Q 1664 2822 1750 3379 
Q 1837 3936 1837 4602 
Q 1837 4646 1859 4668 
Q 1882 4691 1914 4691 
L 2214 4678 
Q 2285 4678 2285 4589 
z
M 4928 -806 
Q 4928 -896 4838 -896 
L 4576 -896 
Q 4486 -896 4486 -806 
L 4486 4915 
Q 4486 5005 4576 5005 
L 4838 5005 
Q 4928 5005 4928 4915 
L 4928 2586 
L 5811 2586 
Q 5850 2586 5878 2563 
Q 5907 2541 5907 2502 
L 5907 2285 
Q 5907 2253 5878 2227 
Q 5850 2202 5811 2202 
L 4928 2202 
L 4928 -806 
z
" transform="scale(0.015625)"/>
       <path id="NanumGothic-5f" d="M 3392 -794 
Q 3462 -794 3472 -803 
Q 3482 -813 3482 -883 
L 3482 -1037 
Q 3482 -1107 3472 -1116 
Q 3462 -1126 3392 -1126 
L 154 -1126 
Q 83 -1126 73 -1116 
Q 64 -1107 64 -1037 
L 64 -883 
Q 64 -813 73 -803 
Q 83 -794 154 -794 
L 3392 -794 
z
" transform="scale(0.015625)"/>
       <path id="NanumGothic-acb0" d="M 3418 4326 
Q 3405 4250 3385 4176 
Q 3366 4102 3347 4032 
L 4710 4032 
L 4710 4915 
Q 4710 5005 4800 5005 
L 5062 5005 
Q 5152 5005 5152 4915 
L 5152 1965 
Q 5152 1875 5062 1875 
L 4800 1875 
Q 4710 1875 4710 1965 
L 4710 2541 
L 3078 2541 
Q 2995 2541 2995 2618 
L 2995 2842 
Q 2995 2918 3078 2918 
L 4710 2918 
L 4710 3654 
L 3219 3654 
Q 3098 3366 2902 3107 
Q 2707 2848 2422 2608 
Q 2138 2368 1750 2144 
Q 1363 1920 864 1709 
Q 768 1664 723 1747 
L 627 1958 
Q 602 2016 618 2041 
Q 634 2067 678 2086 
Q 1734 2522 2281 3053 
Q 2829 3584 2938 4211 
Q 2976 4397 2784 4397 
L 851 4397 
Q 774 4397 774 4480 
L 774 4704 
Q 774 4781 851 4781 
L 2931 4781 
Q 3238 4781 3350 4672 
Q 3462 4563 3418 4326 
z
M 5286 -838 
Q 5286 -870 5257 -892 
Q 5229 -915 5203 -915 
L 1984 -915 
Q 1683 -915 1590 -803 
Q 1498 -691 1498 -422 
L 1498 58 
Q 1498 326 1610 419 
Q 1722 512 2010 512 
L 4570 512 
Q 4659 512 4684 537 
Q 4710 563 4710 659 
L 4710 1024 
Q 4710 1120 4688 1145 
Q 4666 1171 4576 1171 
L 1574 1171 
Q 1542 1171 1513 1190 
Q 1485 1210 1485 1242 
L 1485 1472 
Q 1485 1504 1513 1523 
Q 1542 1542 1574 1542 
L 4646 1542 
Q 4800 1542 4896 1520 
Q 4992 1498 5049 1446 
Q 5107 1395 5129 1302 
Q 5152 1210 5152 1075 
L 5152 595 
Q 5152 326 5040 233 
Q 4928 141 4640 141 
L 2074 141 
Q 1984 141 1961 115 
Q 1939 90 1939 -6 
L 1939 -397 
Q 1939 -486 1964 -515 
Q 1990 -544 2080 -544 
L 5197 -544 
Q 5229 -544 5257 -563 
Q 5286 -582 5286 -614 
L 5286 -838 
z
" transform="scale(0.015625)"/>
       <path id="NanumGothic-acfc" d="M 4928 -806 
Q 4928 -896 4838 -896 
L 4576 -896 
Q 4486 -896 4486 -806 
L 4486 4915 
Q 4486 5005 4576 5005 
L 4838 5005 
Q 4928 5005 4928 4915 
L 4928 2413 
L 5811 2413 
Q 5850 2413 5878 2390 
Q 5907 2368 5907 2330 
L 5907 2112 
Q 5907 2080 5878 2054 
Q 5850 2029 5811 2029 
L 4928 2029 
L 4928 -806 
z
M 4090 973 
Q 4192 992 4198 928 
L 4237 704 
Q 4250 627 4154 614 
Q 3725 544 3213 486 
Q 2701 429 2182 397 
Q 1997 384 1747 377 
Q 1498 371 1238 368 
Q 979 365 732 365 
Q 486 365 307 371 
Q 269 371 240 396 
Q 211 422 211 454 
L 211 672 
Q 211 710 240 732 
Q 269 755 307 755 
Q 429 755 589 752 
Q 749 749 925 749 
Q 1101 749 1289 752 
Q 1478 755 1658 755 
L 1658 2522 
Q 1658 2560 1680 2589 
Q 1702 2618 1741 2618 
L 2016 2618 
Q 2048 2618 2073 2589 
Q 2099 2560 2099 2522 
L 2099 768 
Q 2112 768 2131 771 
Q 2150 774 2170 774 
Q 2394 787 2650 803 
Q 2906 819 3162 841 
Q 3418 864 3658 896 
Q 3898 928 4090 973 
z
M 608 4410 
Q 608 4448 640 4467 
Q 672 4486 704 4486 
L 3104 4486 
Q 3258 4486 3350 4454 
Q 3443 4422 3494 4361 
Q 3546 4301 3565 4205 
Q 3584 4109 3590 3974 
Q 3597 3712 3587 3437 
Q 3578 3162 3555 2883 
Q 3533 2605 3494 2336 
Q 3456 2067 3405 1830 
Q 3392 1792 3369 1760 
Q 3347 1728 3309 1734 
L 3053 1754 
Q 2944 1760 2976 1869 
Q 3034 2106 3075 2381 
Q 3117 2656 3139 2934 
Q 3162 3213 3168 3478 
Q 3174 3744 3155 3968 
Q 3142 4058 3120 4080 
Q 3098 4102 3008 4102 
L 704 4102 
Q 659 4102 633 4124 
Q 608 4147 608 4179 
L 608 4410 
z
" transform="scale(0.015625)"/>
      </defs>
      <use xlink:href="#NanumGothic-ac80"/>
      <use xlink:href="#NanumGothic-c0ac" x="93.999985"/>
      <use xlink:href="#NanumGothic-5f" x="187.999969"/>
      <use xlink:href="#NanumGothic-acb0" x="242.499954"/>
      <use xlink:href="#NanumGothic-acfc" x="336.499939"/>
     </g>
    </g>
    <g id="patch_14">
     <path d="M 322.009063 72.572 
L 342.009063 72.572 
L 342.009063 65.572 
L 322.009063 65.572 
z
" style="fill: #fb8500; fill-opacity: 0.75"/>
    </g>
    <g id="text_12">
     <!-- Inconclusive -->
     <g transform="translate(350.009063 72.572) scale(0.1 -0.1)">
      <defs>
       <path id="NanumGothic-49" d="M 1069 -186 
Q 1069 -275 979 -275 
L 672 -275 
Q 582 -275 582 -186 
L 582 4371 
Q 582 4461 672 4461 
L 979 4461 
Q 1069 4461 1069 4371 
L 1069 -186 
z
" transform="scale(0.015625)"/>
       <path id="NanumGothic-6f" d="M 3130 1453 
Q 3130 1754 3050 2016 
Q 2970 2278 2829 2483 
Q 2496 2893 1965 2893 
Q 1696 2893 1481 2787 
Q 1267 2682 1101 2483 
Q 954 2278 874 2016 
Q 794 1754 794 1453 
Q 794 1146 874 883 
Q 954 621 1101 422 
Q 1440 6 1965 6 
Q 2234 6 2448 115 
Q 2662 224 2829 422 
Q 2970 621 3050 883 
Q 3130 1146 3130 1453 
z
M 3603 1453 
Q 3603 1075 3494 752 
Q 3386 429 3206 186 
Q 2982 -83 2672 -230 
Q 2362 -378 1965 -378 
Q 1568 -378 1254 -230 
Q 941 -83 717 186 
Q 538 429 432 752 
Q 326 1075 326 1453 
Q 326 2227 717 2720 
Q 1165 3277 1965 3277 
Q 2368 3277 2675 3139 
Q 2982 3002 3206 2720 
Q 3603 2214 3603 1453 
z
" transform="scale(0.015625)"/>
       <path id="NanumGothic-75" d="M 3347 -186 
Q 3347 -275 3258 -275 
L 3027 -275 
Q 2938 -275 2938 -186 
L 2938 346 
Q 2771 -38 2492 -208 
Q 2214 -378 1792 -378 
Q 595 -378 595 960 
L 595 3098 
Q 595 3187 685 3187 
L 941 3187 
Q 1030 3187 1030 3098 
L 1030 1075 
Q 1030 -13 1862 -13 
Q 2106 -13 2301 92 
Q 2496 198 2630 380 
Q 2765 563 2835 806 
Q 2906 1050 2899 1318 
L 2899 3098 
Q 2899 3187 2989 3187 
L 3245 3187 
Q 3334 3187 3334 3098 
L 3334 525 
Q 3334 314 3337 147 
Q 3341 -19 3347 -186 
z
" transform="scale(0.015625)"/>
       <path id="NanumGothic-73" d="M 422 147 
Q 813 -13 1229 -13 
Q 1574 -13 1798 156 
Q 2022 326 2022 614 
Q 2022 781 1897 937 
Q 1773 1094 1594 1197 
Q 1395 1306 1187 1405 
Q 979 1504 787 1613 
Q 557 1741 448 1929 
Q 339 2118 339 2323 
Q 339 2560 428 2739 
Q 518 2918 672 3040 
Q 826 3162 1030 3219 
Q 1235 3277 1466 3277 
Q 1709 3277 1888 3251 
Q 2067 3226 2246 3174 
Q 2285 3162 2313 3136 
Q 2342 3110 2336 3066 
L 2317 2874 
Q 2310 2822 2278 2809 
Q 2246 2797 2214 2810 
Q 2054 2867 1894 2889 
Q 1734 2912 1510 2912 
Q 768 2912 768 2323 
Q 768 2195 867 2080 
Q 966 1965 1203 1850 
Q 1408 1747 1606 1654 
Q 1805 1562 2035 1434 
Q 2234 1325 2365 1101 
Q 2496 877 2496 614 
Q 2496 358 2393 172 
Q 2291 -13 2118 -134 
Q 1946 -256 1722 -317 
Q 1498 -378 1261 -378 
Q 1120 -378 1008 -371 
Q 896 -365 797 -352 
Q 698 -339 595 -320 
Q 493 -301 378 -269 
Q 288 -237 294 -154 
L 320 83 
Q 333 186 422 147 
z
" transform="scale(0.015625)"/>
       <path id="NanumGothic-69" d="M 1050 -186 
Q 1050 -275 960 -275 
L 678 -275 
Q 589 -275 589 -186 
L 589 3098 
Q 589 3187 678 3187 
L 960 3187 
Q 1050 3187 1050 3098 
L 1050 -186 
z
M 506 4397 
Q 506 4525 595 4617 
Q 685 4710 813 4710 
Q 941 4710 1033 4617 
Q 1126 4525 1126 4397 
Q 1126 4269 1033 4179 
Q 941 4090 813 4090 
Q 685 4090 595 4179 
Q 506 4269 506 4397 
z
" transform="scale(0.015625)"/>
       <path id="NanumGothic-76" d="M 1843 -192 
Q 1811 -275 1715 -275 
L 1402 -275 
Q 1306 -275 1280 -192 
L 154 3098 
Q 141 3130 160 3158 
Q 179 3187 218 3187 
L 506 3187 
Q 582 3187 621 3098 
L 1568 166 
L 2554 3098 
Q 2566 3136 2598 3161 
Q 2630 3187 2669 3187 
L 2950 3187 
Q 2989 3187 3008 3158 
Q 3027 3130 3014 3098 
L 1843 -192 
z
" transform="scale(0.015625)"/>
      </defs>
      <use xlink:href="#NanumGothic-49"/>
      <use xlink:href="#NanumGothic-6e" x="24.199997"/>
      <use xlink:href="#NanumGothic-63" x="84.799988"/>
      <use xlink:href="#NanumGothic-6f" x="133.199982"/>
      <use xlink:href="#NanumGothic-6e" x="193.799973"/>
      <use xlink:href="#NanumGothic-63" x="254.399963"/>
      <use xlink:href="#NanumGothic-6c" x="302.799957"/>
      <use xlink:href="#NanumGothic-75" x="326.999954"/>
      <use xlink:href="#NanumGothic-73" x="387.599945"/>
      <use xlink:href="#NanumGothic-69" x="429.999939"/>
      <use xlink:href="#NanumGothic-76" x="454.199936"/>
      <use xlink:href="#NanumGothic-65" x="502.59993"/>
     </g>
    </g>
    <g id="patch_15">
     <path d="M 322.009063 87.051688 
L 342.009063 87.051688 
L 342.009063 80.051688 
L 322.009063 80.051688 
z
" style="fill: #ffb703; fill-opacity: 0.75"/>
    </g>
    <g id="text_13">
     <!-- Normal -->
     <g transform="translate(350.009063 87.051688) scale(0.1 -0.1)">
      <defs>
       <path id="NanumGothic-4e" d="M 1050 -186 
Q 1050 -275 960 -275 
L 672 -275 
Q 582 -275 582 -186 
L 582 4294 
Q 582 4429 604 4451 
Q 627 4474 762 4474 
L 1056 4474 
Q 1139 4474 1168 4458 
Q 1197 4442 1229 4384 
L 3642 243 
L 3642 4384 
Q 3642 4474 3731 4474 
L 4013 4474 
Q 4102 4474 4102 4384 
L 4102 -96 
Q 4102 -230 4080 -252 
Q 4058 -275 3923 -275 
L 3533 -275 
Q 3482 -275 3459 -262 
Q 3437 -250 3405 -198 
L 1050 3872 
L 1050 -186 
z
" transform="scale(0.015625)"/>
      </defs>
      <use xlink:href="#NanumGothic-4e"/>
      <use xlink:href="#NanumGothic-6f" x="72.699982"/>
      <use xlink:href="#NanumGothic-72" x="133.299973"/>
      <use xlink:href="#NanumGothic-6d" x="169.59996"/>
      <use xlink:href="#NanumGothic-61" x="260.399948"/>
      <use xlink:href="#NanumGothic-6c" x="314.899933"/>
     </g>
    </g>
    <g id="patch_16">
     <path d="M 322.009063 101.531375 
L 342.009063 101.531375 
L 342.009063 94.531375 
L 322.009063 94.531375 
z
" style="fill: #8e8444; fill-opacity: 0.75"/>
    </g>
    <g id="text_14">
     <!-- Abnormal -->
     <g transform="translate(350.009063 101.531375) scale(0.1 -0.1)">
      <defs>
       <path id="NanumGothic-41" d="M 3386 1402 
Q 3117 2067 2870 2716 
Q 2624 3366 2355 4032 
Q 2086 3366 1827 2716 
Q 1568 2067 1299 1402 
L 3386 1402 
z
M 4499 -186 
Q 4531 -275 4442 -275 
L 4134 -275 
Q 4096 -275 4067 -262 
Q 4038 -250 4013 -186 
L 3539 992 
L 1133 992 
Q 1011 691 896 403 
Q 781 115 666 -186 
Q 640 -250 611 -262 
Q 582 -275 544 -275 
L 243 -275 
Q 154 -275 186 -186 
L 2067 4397 
Q 2099 4474 2182 4474 
L 2573 4474 
Q 2656 4474 2688 4397 
L 4499 -186 
z
" transform="scale(0.015625)"/>
       <path id="NanumGothic-62" d="M 3066 1478 
Q 3072 1747 3017 2003 
Q 2963 2259 2841 2464 
Q 2720 2669 2518 2793 
Q 2317 2918 2022 2918 
Q 1760 2918 1565 2806 
Q 1370 2694 1242 2496 
Q 1114 2298 1050 2035 
Q 986 1773 986 1478 
Q 986 1190 1066 924 
Q 1146 659 1283 460 
Q 1421 262 1609 144 
Q 1798 26 2022 26 
Q 2317 26 2518 150 
Q 2720 275 2841 480 
Q 2963 685 3017 947 
Q 3072 1210 3066 1478 
z
M 557 4749 
Q 557 4838 646 4838 
L 896 4838 
Q 986 4838 986 4749 
L 986 2707 
Q 1146 2970 1440 3126 
Q 1734 3283 2099 3283 
Q 3526 3283 3526 1478 
Q 3533 1120 3453 790 
Q 3373 461 3193 211 
Q 3014 -38 2742 -188 
Q 2470 -339 2099 -339 
Q 1331 -339 986 314 
L 986 -186 
Q 986 -275 896 -275 
L 646 -275 
Q 557 -275 557 -186 
L 557 4749 
z
" transform="scale(0.015625)"/>
      </defs>
      <use xlink:href="#NanumGothic-41"/>
      <use xlink:href="#NanumGothic-62" x="72.699982"/>
      <use xlink:href="#NanumGothic-6e" x="133.299973"/>
      <use xlink:href="#NanumGothic-6f" x="193.899963"/>
      <use xlink:href="#NanumGothic-72" x="254.499954"/>
      <use xlink:href="#NanumGothic-6d" x="290.799942"/>
      <use xlink:href="#NanumGothic-61" x="381.59993"/>
      <use xlink:href="#NanumGothic-6c" x="436.099915"/>
     </g>
    </g>
   </g>
  </g>
 </g>
 <defs>
  <clipPath id="p71e7ad8d08">
   <rect x="57.6" y="41.472" width="357.12" height="266.112"/>
  </clipPath>
 </defs>
</svg>
