<?xml version="1.0" encoding="utf-8" standalone="no"?>
<!DOCTYPE svg PUBLIC "-//W3C//DTD SVG 1.1//EN"
  "http://www.w3.org/Graphics/SVG/1.1/DTD/svg11.dtd">
<svg xmlns:xlink="http://www.w3.org/1999/xlink" width="460.8pt" height="345.6pt" viewBox="0 0 460.8 345.6" xmlns="http://www.w3.org/2000/svg" version="1.1">
 <metadata>
  <rdf:RDF xmlns:dc="http://purl.org/dc/elements/1.1/" xmlns:cc="http://creativecommons.org/ns#" xmlns:rdf="http://www.w3.org/1999/02/22-rdf-syntax-ns#">
   <cc:Work>
    <dc:type rdf:resource="http://purl.org/dc/dcmitype/StillImage"/>
    <dc:date>2024-05-06T04:47:53.542805</dc:date>
    <dc:format>image/svg+xml</dc:format>
    <dc:creator>
     <cc:Agent>
      <dc:title>Matplotlib v3.8.4, https://matplotlib.org/</dc:title>
     </cc:Agent>
    </dc:creator>
   </cc:Work>
  </rdf:RDF>
 </metadata>
 <defs>
  <style type="text/css">*{stroke-linejoin: round; stroke-linecap: butt}</style>
 </defs>
 <g id="figure_1">
  <g id="patch_1">
   <path d="M 0 345.6 
L 460.8 345.6 
L 460.8 0 
L 0 0 
z
" style="fill: #ffffff"/>
  </g>
  <g id="axes_1">
   <g id="patch_2">
    <path d="M 57.6 307.584 
L 414.72 307.584 
L 414.72 41.472 
L 57.6 41.472 
z
" style="fill: #ffffff"/>
   </g>
   <g id="patch_3">
    <path d="M 75.456 307.584 
L 218.304 307.584 
L 218.304 54.144 
L 75.456 54.144 
z
" clip-path="url(#p2a055bfcde)" style="fill: #dc831f"/>
   </g>
   <g id="patch_4">
    <path d="M 254.016 307.584 
L 396.864 307.584 
L 396.864 100.830316 
L 254.016 100.830316 
z
" clip-path="url(#p2a055bfcde)" style="fill: #e0aa22"/>
   </g>
   <g id="matplotlib.axis_1">
    <g id="xtick_1">
     <g id="line2d_1">
      <defs>
       <path id="m77842ccb6a" d="M 0 0 
L 0 3.5 
" style="stroke: #000000; stroke-width: 0.8"/>
      </defs>
      <g>
       <use xlink:href="#m77842ccb6a" x="146.88" y="307.584" style="stroke: #000000; stroke-width: 0.8"/>
      </g>
     </g>
     <g id="text_1">
      <!-- Adelie -->
      <g transform="translate(132.344844 322.104312) scale(0.1 -0.1)">
       <defs>
        <path id="NanumGothic-41" d="M 3386 1402 
Q 3117 2067 2870 2716 
Q 2624 3366 2355 4032 
Q 2086 3366 1827 2716 
Q 1568 2067 1299 1402 
L 3386 1402 
z
M 4499 -186 
Q 4531 -275 4442 -275 
L 4134 -275 
Q 4096 -275 4067 -262 
Q 4038 -250 4013 -186 
L 3539 992 
L 1133 992 
Q 1011 691 896 403 
Q 781 115 666 -186 
Q 640 -250 611 -262 
Q 582 -275 544 -275 
L 243 -275 
Q 154 -275 186 -186 
L 2067 4397 
Q 2099 4474 2182 4474 
L 2573 4474 
Q 2656 4474 2688 4397 
L 4499 -186 
z
" transform="scale(0.015625)"/>
        <path id="NanumGothic-64" d="M 877 1459 
Q 877 1158 925 912 
Q 973 666 1075 480 
Q 1216 250 1417 128 
Q 1619 6 1901 6 
Q 2157 6 2352 140 
Q 2547 275 2678 483 
Q 2810 691 2874 950 
Q 2938 1210 2938 1459 
Q 2938 1766 2870 2028 
Q 2803 2291 2672 2483 
Q 2541 2675 2349 2784 
Q 2157 2893 1901 2893 
Q 1357 2893 1075 2426 
Q 973 2240 925 1993 
Q 877 1747 877 1459 
z
M 3366 -186 
Q 3366 -275 3277 -275 
L 3027 -275 
Q 2938 -275 2938 -186 
L 2938 294 
Q 2592 -358 1824 -358 
Q 1139 -358 755 166 
Q 403 653 403 1459 
Q 403 3258 1824 3258 
Q 2208 3258 2505 3104 
Q 2803 2950 2938 2707 
L 2938 4723 
Q 2938 4813 3027 4813 
L 3277 4813 
Q 3366 4813 3366 4723 
L 3366 -186 
z
" transform="scale(0.015625)"/>
        <path id="NanumGothic-65" d="M 2733 1696 
Q 2733 1958 2681 2163 
Q 2630 2368 2522 2534 
Q 2285 2912 1837 2912 
Q 1376 2912 1088 2528 
Q 973 2355 896 2131 
Q 819 1907 813 1696 
L 2733 1696 
z
M 813 1331 
Q 806 1011 886 764 
Q 966 518 1120 352 
Q 1274 186 1488 96 
Q 1702 6 1965 6 
Q 2221 6 2445 54 
Q 2669 102 2861 211 
Q 2944 250 2944 166 
L 2944 -122 
Q 2944 -179 2874 -211 
Q 2662 -294 2432 -336 
Q 2202 -378 1933 -378 
Q 1146 -378 742 80 
Q 339 538 339 1459 
Q 339 2272 742 2771 
Q 1165 3277 1811 3277 
Q 2170 3277 2432 3149 
Q 2694 3021 2880 2765 
Q 3206 2310 3206 1549 
Q 3206 1466 3203 1421 
Q 3200 1376 3181 1357 
Q 3162 1338 3114 1334 
Q 3066 1331 2976 1331 
L 813 1331 
z
" transform="scale(0.015625)"/>
        <path id="NanumGothic-6c" d="M 1056 -186 
Q 1056 -275 966 -275 
L 685 -275 
Q 595 -275 595 -186 
L 595 4723 
Q 595 4813 685 4813 
L 966 4813 
Q 1056 4813 1056 4723 
L 1056 -186 
z
" transform="scale(0.015625)"/>
        <path id="NanumGothic-69" d="M 1050 -186 
Q 1050 -275 960 -275 
L 678 -275 
Q 589 -275 589 -186 
L 589 3098 
Q 589 3187 678 3187 
L 960 3187 
Q 1050 3187 1050 3098 
L 1050 -186 
z
M 506 4397 
Q 506 4525 595 4617 
Q 685 4710 813 4710 
Q 941 4710 1033 4617 
Q 1126 4525 1126 4397 
Q 1126 4269 1033 4179 
Q 941 4090 813 4090 
Q 685 4090 595 4179 
Q 506 4269 506 4397 
z
" transform="scale(0.015625)"/>
       </defs>
       <use xlink:href="#NanumGothic-41"/>
       <use xlink:href="#NanumGothic-64" x="72.699982"/>
       <use xlink:href="#NanumGothic-65" x="133.299973"/>
       <use xlink:href="#NanumGothic-6c" x="187.799957"/>
       <use xlink:href="#NanumGothic-69" x="211.999954"/>
       <use xlink:href="#NanumGothic-65" x="236.199951"/>
      </g>
     </g>
    </g>
    <g id="xtick_2">
     <g id="line2d_2">
      <g>
       <use xlink:href="#m77842ccb6a" x="325.44" y="307.584" style="stroke: #000000; stroke-width: 0.8"/>
      </g>
     </g>
     <g id="text_2">
      <!-- Gentoo -->
      <g transform="translate(307.825938 322.104312) scale(0.1 -0.1)">
       <defs>
        <path id="NanumGothic-47" d="M 4250 2285 
Q 4384 2285 4406 2262 
Q 4429 2240 4429 2106 
L 4429 77 
Q 4429 6 4387 -45 
Q 4346 -96 4294 -122 
Q 3987 -237 3651 -297 
Q 3315 -358 2950 -358 
Q 2419 -358 1968 -195 
Q 1517 -32 1190 278 
Q 864 589 681 1046 
Q 499 1504 499 2093 
Q 499 2630 668 3078 
Q 838 3526 1155 3852 
Q 1472 4179 1926 4361 
Q 2381 4544 2950 4544 
Q 3309 4544 3574 4512 
Q 3840 4480 4141 4384 
Q 4237 4358 4218 4256 
L 4186 4019 
Q 4179 3936 4090 3962 
Q 3802 4070 3539 4105 
Q 3277 4141 2950 4141 
Q 2496 4141 2128 3990 
Q 1760 3840 1501 3571 
Q 1242 3302 1104 2924 
Q 966 2547 966 2093 
Q 966 1600 1113 1216 
Q 1261 832 1526 573 
Q 1792 314 2153 179 
Q 2515 45 2950 45 
Q 3661 45 3962 218 
L 3962 1882 
L 2675 1882 
Q 2586 1882 2586 1971 
L 2586 2195 
Q 2586 2285 2675 2285 
L 4250 2285 
z
" transform="scale(0.015625)"/>
        <path id="NanumGothic-6e" d="M 3334 -186 
Q 3334 -275 3245 -275 
L 2989 -275 
Q 2899 -275 2899 -186 
L 2899 1830 
Q 2899 2419 2688 2665 
Q 2477 2912 2093 2912 
Q 1574 2912 1302 2624 
Q 1030 2336 1030 1818 
L 1030 -186 
Q 1030 -275 941 -275 
L 685 -275 
Q 595 -275 595 -186 
L 595 2374 
Q 595 2650 592 2803 
Q 589 2957 576 3098 
Q 570 3142 598 3164 
Q 627 3187 666 3187 
L 896 3187 
Q 986 3187 986 3098 
L 986 2746 
Q 1165 3021 1417 3149 
Q 1670 3277 2112 3277 
Q 2720 3277 3027 2925 
Q 3334 2573 3334 1933 
L 3334 -186 
z
" transform="scale(0.015625)"/>
        <path id="NanumGothic-74" d="M 2208 -282 
Q 1939 -378 1677 -378 
Q 1158 -378 992 -38 
Q 883 192 883 774 
L 883 2816 
L 282 2816 
Q 192 2816 192 2906 
L 192 3098 
Q 192 3187 282 3187 
L 883 3187 
L 883 4051 
Q 883 4147 966 4147 
L 1235 4147 
Q 1318 4147 1318 4051 
L 1318 3187 
L 2029 3187 
Q 2118 3187 2118 3098 
L 2118 2906 
Q 2118 2816 2029 2816 
L 1318 2816 
L 1318 557 
Q 1318 -13 1779 -13 
Q 1958 -13 2182 64 
Q 2214 77 2243 64 
Q 2272 51 2272 13 
L 2285 -154 
Q 2298 -243 2208 -282 
z
" transform="scale(0.015625)"/>
        <path id="NanumGothic-6f" d="M 3130 1453 
Q 3130 1754 3050 2016 
Q 2970 2278 2829 2483 
Q 2496 2893 1965 2893 
Q 1696 2893 1481 2787 
Q 1267 2682 1101 2483 
Q 954 2278 874 2016 
Q 794 1754 794 1453 
Q 794 1146 874 883 
Q 954 621 1101 422 
Q 1440 6 1965 6 
Q 2234 6 2448 115 
Q 2662 224 2829 422 
Q 2970 621 3050 883 
Q 3130 1146 3130 1453 
z
M 3603 1453 
Q 3603 1075 3494 752 
Q 3386 429 3206 186 
Q 2982 -83 2672 -230 
Q 2362 -378 1965 -378 
Q 1568 -378 1254 -230 
Q 941 -83 717 186 
Q 538 429 432 752 
Q 326 1075 326 1453 
Q 326 2227 717 2720 
Q 1165 3277 1965 3277 
Q 2368 3277 2675 3139 
Q 2982 3002 3206 2720 
Q 3603 2214 3603 1453 
z
" transform="scale(0.015625)"/>
       </defs>
       <use xlink:href="#NanumGothic-47"/>
       <use xlink:href="#NanumGothic-65" x="79.699982"/>
       <use xlink:href="#NanumGothic-6e" x="134.199966"/>
       <use xlink:href="#NanumGothic-74" x="194.799957"/>
       <use xlink:href="#NanumGothic-6f" x="231.099945"/>
       <use xlink:href="#NanumGothic-6f" x="291.699936"/>
      </g>
     </g>
    </g>
    <g id="text_3">
     <!-- species -->
     <g transform="translate(219.809219 335.584) scale(0.1 -0.1)">
      <defs>
       <path id="NanumGothic-73" d="M 422 147 
Q 813 -13 1229 -13 
Q 1574 -13 1798 156 
Q 2022 326 2022 614 
Q 2022 781 1897 937 
Q 1773 1094 1594 1197 
Q 1395 1306 1187 1405 
Q 979 1504 787 1613 
Q 557 1741 448 1929 
Q 339 2118 339 2323 
Q 339 2560 428 2739 
Q 518 2918 672 3040 
Q 826 3162 1030 3219 
Q 1235 3277 1466 3277 
Q 1709 3277 1888 3251 
Q 2067 3226 2246 3174 
Q 2285 3162 2313 3136 
Q 2342 3110 2336 3066 
L 2317 2874 
Q 2310 2822 2278 2809 
Q 2246 2797 2214 2810 
Q 2054 2867 1894 2889 
Q 1734 2912 1510 2912 
Q 768 2912 768 2323 
Q 768 2195 867 2080 
Q 966 1965 1203 1850 
Q 1408 1747 1606 1654 
Q 1805 1562 2035 1434 
Q 2234 1325 2365 1101 
Q 2496 877 2496 614 
Q 2496 358 2393 172 
Q 2291 -13 2118 -134 
Q 1946 -256 1722 -317 
Q 1498 -378 1261 -378 
Q 1120 -378 1008 -371 
Q 896 -365 797 -352 
Q 698 -339 595 -320 
Q 493 -301 378 -269 
Q 288 -237 294 -154 
L 320 83 
Q 333 186 422 147 
z
" transform="scale(0.015625)"/>
       <path id="NanumGothic-70" d="M 2989 1504 
Q 2989 1766 2937 2012 
Q 2886 2259 2764 2451 
Q 2643 2643 2451 2761 
Q 2259 2880 1971 2880 
Q 1709 2880 1517 2771 
Q 1325 2662 1200 2473 
Q 1075 2285 1011 2035 
Q 947 1786 947 1504 
Q 947 762 1225 381 
Q 1504 0 1971 0 
Q 2214 0 2403 105 
Q 2592 211 2723 409 
Q 2854 608 2921 883 
Q 2989 1158 2989 1504 
z
M 518 3098 
Q 518 3187 608 3187 
L 851 3187 
Q 941 3187 941 3098 
L 909 2618 
Q 1037 2899 1341 3072 
Q 1645 3245 2048 3245 
Q 2426 3245 2691 3110 
Q 2957 2976 3126 2742 
Q 3296 2509 3376 2189 
Q 3456 1869 3456 1504 
Q 3456 1107 3363 768 
Q 3270 429 3094 179 
Q 2918 -70 2656 -214 
Q 2394 -358 2048 -358 
Q 1658 -358 1376 -208 
Q 1094 -58 947 211 
L 947 -1165 
Q 947 -1254 858 -1254 
L 614 -1254 
Q 576 -1254 547 -1228 
Q 518 -1203 518 -1165 
L 518 3098 
z
" transform="scale(0.015625)"/>
       <path id="NanumGothic-63" d="M 2816 -301 
Q 2624 -333 2445 -345 
Q 2266 -358 2016 -358 
Q 1619 -358 1308 -217 
Q 998 -77 784 166 
Q 570 410 454 742 
Q 339 1075 339 1459 
Q 339 1850 460 2179 
Q 582 2509 809 2749 
Q 1037 2989 1353 3126 
Q 1670 3264 2067 3264 
Q 2278 3264 2451 3248 
Q 2624 3232 2822 3187 
Q 2912 3162 2906 3066 
L 2886 2861 
Q 2874 2784 2790 2803 
Q 2624 2854 2470 2876 
Q 2317 2899 2131 2899 
Q 1805 2899 1558 2793 
Q 1312 2688 1145 2496 
Q 979 2304 896 2038 
Q 813 1773 813 1459 
Q 813 1171 899 908 
Q 986 646 1149 444 
Q 1312 243 1545 124 
Q 1779 6 2080 6 
Q 2304 6 2451 25 
Q 2598 45 2784 96 
Q 2880 122 2886 51 
L 2906 -186 
Q 2912 -282 2816 -301 
z
" transform="scale(0.015625)"/>
      </defs>
      <use xlink:href="#NanumGothic-73"/>
      <use xlink:href="#NanumGothic-70" x="42.399994"/>
      <use xlink:href="#NanumGothic-65" x="102.999985"/>
      <use xlink:href="#NanumGothic-63" x="157.499969"/>
      <use xlink:href="#NanumGothic-69" x="205.899963"/>
      <use xlink:href="#NanumGothic-65" x="230.09996"/>
      <use xlink:href="#NanumGothic-73" x="284.599945"/>
     </g>
    </g>
   </g>
   <g id="matplotlib.axis_2">
    <g id="ytick_1">
     <g id="line2d_3">
      <defs>
       <path id="mc29c326656" d="M 0 0 
L -3.5 0 
" style="stroke: #000000; stroke-width: 0.8"/>
      </defs>
      <g>
       <use xlink:href="#mc29c326656" x="57.6" y="307.584" style="stroke: #000000; stroke-width: 0.8"/>
      </g>
     </g>
     <g id="text_4">
      <!-- 0 -->
      <g transform="translate(44.540625 311.344156) scale(0.1 -0.1)">
       <defs>
        <path id="NanumGothic-30" d="M 3066 2093 
Q 3066 4102 1965 4102 
Q 864 4102 864 2093 
Q 864 77 1965 77 
Q 3066 77 3066 2093 
z
M 3526 2093 
Q 3526 -326 1965 -326 
Q 390 -326 390 2093 
Q 390 3098 698 3725 
Q 1088 4512 1965 4512 
Q 2829 4512 3226 3725 
Q 3373 3411 3449 3008 
Q 3526 2605 3526 2093 
z
" transform="scale(0.015625)"/>
       </defs>
       <use xlink:href="#NanumGothic-30"/>
      </g>
     </g>
    </g>
    <g id="ytick_2">
     <g id="line2d_4">
      <g>
       <use xlink:href="#mc29c326656" x="57.6" y="274.236632" style="stroke: #000000; stroke-width: 0.8"/>
      </g>
     </g>
     <g id="text_5">
      <!-- 20 -->
      <g transform="translate(38.48125 277.996788) scale(0.1 -0.1)">
       <defs>
        <path id="NanumGothic-32" d="M 576 -301 
Q 506 -301 470 -297 
Q 435 -294 419 -278 
Q 403 -262 400 -227 
Q 397 -192 397 -122 
L 403 19 
Q 403 102 454 154 
L 1510 1318 
Q 2688 2592 2688 3251 
Q 2688 3635 2432 3891 
Q 2182 4141 1811 4141 
Q 1293 4141 730 3853 
Q 640 3808 627 3891 
L 589 4102 
Q 570 4211 653 4237 
Q 979 4384 1241 4454 
Q 1504 4525 1779 4525 
Q 2394 4525 2758 4218 
Q 3168 3885 3168 3270 
Q 3168 3034 3053 2752 
Q 2938 2470 2733 2163 
Q 2605 1984 2371 1696 
Q 2138 1408 1837 1082 
Q 1613 838 1392 588 
Q 1171 339 947 96 
L 3187 96 
Q 3277 96 3277 6 
L 3277 -211 
Q 3277 -301 3187 -301 
L 576 -301 
z
" transform="scale(0.015625)"/>
       </defs>
       <use xlink:href="#NanumGothic-32"/>
       <use xlink:href="#NanumGothic-30" x="60.599991"/>
      </g>
     </g>
    </g>
    <g id="ytick_3">
     <g id="line2d_5">
      <g>
       <use xlink:href="#mc29c326656" x="57.6" y="240.889263" style="stroke: #000000; stroke-width: 0.8"/>
      </g>
     </g>
     <g id="text_6">
      <!-- 40 -->
      <g transform="translate(38.48125 244.649419) scale(0.1 -0.1)">
       <defs>
        <path id="NanumGothic-34" d="M 2509 1216 
L 2509 4070 
Q 2035 3354 1568 2643 
Q 1101 1933 621 1216 
L 2509 1216 
z
M 2944 -211 
Q 2944 -301 2854 -301 
L 2598 -301 
Q 2509 -301 2509 -211 
L 2509 826 
L 397 826 
Q 262 826 240 848 
Q 218 870 218 1005 
L 218 1203 
Q 218 1261 224 1280 
Q 230 1299 262 1350 
L 2304 4397 
Q 2342 4454 2358 4464 
Q 2374 4474 2445 4474 
L 2765 4474 
Q 2899 4474 2921 4451 
Q 2944 4429 2944 4294 
L 2944 1216 
L 3578 1216 
Q 3667 1216 3667 1126 
L 3667 915 
Q 3667 826 3578 826 
L 2944 826 
L 2944 -211 
z
" transform="scale(0.015625)"/>
       </defs>
       <use xlink:href="#NanumGothic-34"/>
       <use xlink:href="#NanumGothic-30" x="60.599991"/>
      </g>
     </g>
    </g>
    <g id="ytick_4">
     <g id="line2d_6">
      <g>
       <use xlink:href="#mc29c326656" x="57.6" y="207.541895" style="stroke: #000000; stroke-width: 0.8"/>
      </g>
     </g>
     <g id="text_7">
      <!-- 60 -->
      <g transform="translate(38.48125 211.302051) scale(0.1 -0.1)">
       <defs>
        <path id="NanumGothic-36" d="M 3078 1203 
Q 3078 1722 2810 2022 
Q 2541 2330 2042 2330 
Q 1786 2330 1581 2250 
Q 1376 2170 1232 2029 
Q 1088 1888 1008 1689 
Q 928 1491 928 1254 
Q 928 768 1197 435 
Q 1491 45 1984 45 
Q 2490 45 2797 384 
Q 3078 704 3078 1203 
z
M 3245 4013 
Q 3098 4064 2909 4096 
Q 2720 4128 2534 4128 
Q 1664 4128 1248 3501 
Q 896 2976 883 2061 
Q 1024 2317 1293 2496 
Q 1626 2733 2042 2733 
Q 2624 2733 3021 2426 
Q 3526 2035 3526 1235 
Q 3526 557 3110 109 
Q 2688 -346 1971 -346 
Q 435 -346 435 1920 
Q 435 3104 909 3770 
Q 1466 4525 2586 4525 
Q 2752 4525 2934 4499 
Q 3117 4474 3270 4429 
Q 3366 4410 3354 4314 
L 3341 4077 
Q 3341 4032 3309 4016 
Q 3277 4000 3245 4013 
z
" transform="scale(0.015625)"/>
       </defs>
       <use xlink:href="#NanumGothic-36"/>
       <use xlink:href="#NanumGothic-30" x="60.599991"/>
      </g>
     </g>
    </g>
    <g id="ytick_5">
     <g id="line2d_7">
      <g>
       <use xlink:href="#mc29c326656" x="57.6" y="174.194526" style="stroke: #000000; stroke-width: 0.8"/>
      </g>
     </g>
     <g id="text_8">
      <!-- 80 -->
      <g transform="translate(38.48125 177.954683) scale(0.1 -0.1)">
       <defs>
        <path id="NanumGothic-38" d="M 2944 3360 
Q 2944 3725 2624 3936 
Q 2342 4134 1965 4134 
Q 1555 4134 1274 3930 
Q 966 3725 966 3360 
Q 966 3027 1286 2758 
Q 1376 2675 1526 2579 
Q 1677 2483 1882 2387 
Q 1933 2362 1965 2365 
Q 1997 2368 2061 2400 
Q 2470 2624 2707 2870 
Q 2944 3117 2944 3360 
z
M 3104 960 
Q 3104 1312 2784 1574 
Q 2682 1658 2496 1760 
Q 2310 1862 2042 1984 
Q 1958 2029 1856 1984 
Q 1606 1888 1414 1782 
Q 1222 1677 1107 1587 
Q 979 1459 899 1289 
Q 819 1120 819 928 
Q 819 538 1184 288 
Q 1517 38 1965 38 
Q 2426 38 2739 256 
Q 3104 506 3104 960 
z
M 3552 928 
Q 3552 614 3421 364 
Q 3290 115 3046 -51 
Q 2835 -192 2560 -269 
Q 2285 -346 1965 -346 
Q 1651 -346 1379 -262 
Q 1107 -179 883 -32 
Q 640 141 505 387 
Q 371 634 371 928 
Q 371 1427 704 1741 
Q 960 1984 1491 2182 
Q 518 2662 518 3411 
Q 518 3680 652 3888 
Q 787 4096 1030 4262 
Q 1235 4390 1468 4457 
Q 1702 4525 1965 4525 
Q 2272 4525 2515 4457 
Q 2758 4390 2957 4256 
Q 3398 3949 3398 3411 
Q 3398 2746 2400 2182 
Q 2662 2086 2870 1971 
Q 3078 1856 3206 1741 
Q 3552 1434 3552 928 
z
" transform="scale(0.015625)"/>
       </defs>
       <use xlink:href="#NanumGothic-38"/>
       <use xlink:href="#NanumGothic-30" x="60.599991"/>
      </g>
     </g>
    </g>
    <g id="ytick_6">
     <g id="line2d_8">
      <g>
       <use xlink:href="#mc29c326656" x="57.6" y="140.847158" style="stroke: #000000; stroke-width: 0.8"/>
      </g>
     </g>
     <g id="text_9">
      <!-- 100 -->
      <g transform="translate(32.421875 144.607314) scale(0.1 -0.1)">
       <defs>
        <path id="NanumGothic-31" d="M 2362 -211 
Q 2362 -301 2272 -301 
L 2010 -301 
Q 1920 -301 1920 -211 
L 1920 3949 
Q 1722 3782 1549 3635 
Q 1376 3488 1184 3322 
Q 1114 3264 1056 3334 
L 928 3488 
Q 909 3520 909 3555 
Q 909 3590 941 3616 
L 1933 4448 
Q 1958 4474 2010 4474 
L 2182 4474 
Q 2317 4474 2339 4451 
Q 2362 4429 2362 4294 
L 2362 -211 
z
" transform="scale(0.015625)"/>
       </defs>
       <use xlink:href="#NanumGothic-31"/>
       <use xlink:href="#NanumGothic-30" x="60.599991"/>
       <use xlink:href="#NanumGothic-30" x="121.199982"/>
      </g>
     </g>
    </g>
    <g id="ytick_7">
     <g id="line2d_9">
      <g>
       <use xlink:href="#mc29c326656" x="57.6" y="107.499789" style="stroke: #000000; stroke-width: 0.8"/>
      </g>
     </g>
     <g id="text_10">
      <!-- 120 -->
      <g transform="translate(32.421875 111.259946) scale(0.1 -0.1)">
       <use xlink:href="#NanumGothic-31"/>
       <use xlink:href="#NanumGothic-32" x="60.599991"/>
       <use xlink:href="#NanumGothic-30" x="121.199982"/>
      </g>
     </g>
    </g>
    <g id="ytick_8">
     <g id="line2d_10">
      <g>
       <use xlink:href="#mc29c326656" x="57.6" y="74.152421" style="stroke: #000000; stroke-width: 0.8"/>
      </g>
     </g>
     <g id="text_11">
      <!-- 140 -->
      <g transform="translate(32.421875 77.912577) scale(0.1 -0.1)">
       <use xlink:href="#NanumGothic-31"/>
       <use xlink:href="#NanumGothic-34" x="60.599991"/>
       <use xlink:href="#NanumGothic-30" x="121.199982"/>
      </g>
     </g>
    </g>
    <g id="text_12">
     <!-- count -->
     <g transform="translate(26.4625 187.852219) rotate(-90) scale(0.1 -0.1)">
      <defs>
       <path id="NanumGothic-75" d="M 3347 -186 
Q 3347 -275 3258 -275 
L 3027 -275 
Q 2938 -275 2938 -186 
L 2938 346 
Q 2771 -38 2492 -208 
Q 2214 -378 1792 -378 
Q 595 -378 595 960 
L 595 3098 
Q 595 3187 685 3187 
L 941 3187 
Q 1030 3187 1030 3098 
L 1030 1075 
Q 1030 -13 1862 -13 
Q 2106 -13 2301 92 
Q 2496 198 2630 380 
Q 2765 563 2835 806 
Q 2906 1050 2899 1318 
L 2899 3098 
Q 2899 3187 2989 3187 
L 3245 3187 
Q 3334 3187 3334 3098 
L 3334 525 
Q 3334 314 3337 147 
Q 3341 -19 3347 -186 
z
" transform="scale(0.015625)"/>
      </defs>
      <use xlink:href="#NanumGothic-63"/>
      <use xlink:href="#NanumGothic-6f" x="48.399994"/>
      <use xlink:href="#NanumGothic-75" x="108.999985"/>
      <use xlink:href="#NanumGothic-6e" x="169.599976"/>
      <use xlink:href="#NanumGothic-74" x="230.199966"/>
     </g>
    </g>
   </g>
   <g id="patch_5">
    <path d="M 57.6 307.584 
L 57.6 41.472 
" style="fill: none; stroke: #000000; stroke-width: 0.8; stroke-linejoin: miter; stroke-linecap: square"/>
   </g>
   <g id="patch_6">
    <path d="M 414.72 307.584 
L 414.72 41.472 
" style="fill: none; stroke: #000000; stroke-width: 0.8; stroke-linejoin: miter; stroke-linecap: square"/>
   </g>
   <g id="patch_7">
    <path d="M 57.6 307.584 
L 414.72 307.584 
" style="fill: none; stroke: #000000; stroke-width: 0.8; stroke-linejoin: miter; stroke-linecap: square"/>
   </g>
   <g id="patch_8">
    <path d="M 57.6 41.472 
L 414.72 41.472 
" style="fill: none; stroke: #000000; stroke-width: 0.8; stroke-linejoin: miter; stroke-linecap: square"/>
   </g>
  </g>
 </g>
 <defs>
  <clipPath id="p2a055bfcde">
   <rect x="57.6" y="41.472" width="357.12" height="266.112"/>
  </clipPath>
 </defs>
</svg>
