<?xml version="1.0" encoding="utf-8" standalone="no"?>
<!DOCTYPE svg PUBLIC "-//W3C//DTD SVG 1.1//EN"
  "http://www.w3.org/Graphics/SVG/1.1/DTD/svg11.dtd">
<svg xmlns:xlink="http://www.w3.org/1999/xlink" width="460.8pt" height="345.6pt" viewBox="0 0 460.8 345.6" xmlns="http://www.w3.org/2000/svg" version="1.1">
 <metadata>
  <rdf:RDF xmlns:dc="http://purl.org/dc/elements/1.1/" xmlns:cc="http://creativecommons.org/ns#" xmlns:rdf="http://www.w3.org/1999/02/22-rdf-syntax-ns#">
   <cc:Work>
    <dc:type rdf:resource="http://purl.org/dc/dcmitype/StillImage"/>
    <dc:date>2024-05-09T17:25:48.970819</dc:date>
    <dc:format>image/svg+xml</dc:format>
    <dc:creator>
     <cc:Agent>
      <dc:title>Matplotlib v3.8.4, https://matplotlib.org/</dc:title>
     </cc:Agent>
    </dc:creator>
   </cc:Work>
  </rdf:RDF>
 </metadata>
 <defs>
  <style type="text/css">*{stroke-linejoin: round; stroke-linecap: butt}</style>
 </defs>
 <g id="figure_1">
  <g id="patch_1">
   <path d="M 0 345.6 
L 460.8 345.6 
L 460.8 0 
L 0 0 
z
" style="fill: #ffffff"/>
  </g>
  <g id="axes_1">
   <g id="patch_2">
    <path d="M 57.6 307.584 
L 414.72 307.584 
L 414.72 41.472 
L 57.6 41.472 
z
" style="fill: #ffffff"/>
   </g>
   <g id="PolyCollection_1">
    <defs>
     <path id="mb6fdabd504" d="M 73.832727 -268.674876 
L 73.832727 -38.016 
L 81.21124 -38.016 
L 88.589752 -38.016 
L 95.968264 -38.016 
L 103.346777 -38.016 
L 110.725289 -38.016 
L 118.103802 -38.016 
L 125.482314 -38.016 
L 132.860826 -38.016 
L 140.239339 -38.016 
L 147.617851 -38.016 
L 154.996364 -38.016 
L 162.374876 -38.016 
L 169.753388 -38.016 
L 177.131901 -38.016 
L 184.510413 -38.016 
L 191.888926 -38.016 
L 199.267438 -38.016 
L 206.64595 -38.016 
L 214.024463 -38.016 
L 221.402975 -38.016 
L 228.781488 -38.016 
L 236.16 -38.016 
L 243.538512 -38.016 
L 250.917025 -38.016 
L 258.295537 -38.016 
L 265.67405 -38.016 
L 273.052562 -38.016 
L 280.431074 -38.016 
L 287.809587 -38.016 
L 295.188099 -38.016 
L 302.566612 -38.016 
L 309.945124 -38.016 
L 317.323636 -38.016 
L 324.702149 -38.016 
L 332.080661 -38.016 
L 339.459174 -38.016 
L 346.837686 -38.016 
L 354.216198 -38.016 
L 361.594711 -38.016 
L 368.973223 -38.016 
L 376.351736 -38.016 
L 383.730248 -38.016 
L 391.10876 -38.016 
L 398.487273 -38.016 
L 398.487273 -40.86364 
L 398.487273 -40.86364 
L 391.10876 -38.016 
L 383.730248 -38.016 
L 376.351736 -38.016 
L 368.973223 -38.016 
L 361.594711 -38.016 
L 354.216198 -38.016 
L 346.837686 -38.016 
L 339.459174 -38.016 
L 332.080661 -38.016 
L 324.702149 -38.016 
L 317.323636 -38.016 
L 309.945124 -38.016 
L 302.566612 -38.016 
L 295.188099 -38.016 
L 287.809587 -38.016 
L 280.431074 -40.86364 
L 273.052562 -38.016 
L 265.67405 -38.016 
L 258.295537 -38.016 
L 250.917025 -38.016 
L 243.538512 -38.016 
L 236.16 -38.016 
L 228.781488 -43.711281 
L 221.402975 -38.016 
L 214.024463 -38.016 
L 206.64595 -40.86364 
L 199.267438 -38.016 
L 191.888926 -40.86364 
L 184.510413 -43.711281 
L 177.131901 -46.558921 
L 169.753388 -38.016 
L 162.374876 -40.86364 
L 154.996364 -43.711281 
L 147.617851 -46.558921 
L 140.239339 -40.86364 
L 132.860826 -43.711281 
L 125.482314 -46.558921 
L 118.103802 -43.711281 
L 110.725289 -75.035326 
L 103.346777 -97.816449 
L 95.968264 -120.597573 
L 88.589752 -157.616899 
L 81.21124 -291.456 
L 73.832727 -268.674876 
z
" style="stroke: #fb8500"/>
    </defs>
    <g clip-path="url(#pb2c4bf4cb1)">
     <use xlink:href="#mb6fdabd504" x="0" y="345.6" style="fill: #fb8500; fill-opacity: 0.75; stroke: #fb8500"/>
    </g>
   </g>
   <g id="matplotlib.axis_1">
    <g id="xtick_1">
     <g id="line2d_1">
      <defs>
       <path id="m0e71f7d41b" d="M 0 0 
L 0 3.5 
" style="stroke: #000000; stroke-width: 0.8"/>
      </defs>
      <g>
       <use xlink:href="#m0e71f7d41b" x="69.920025" y="307.584" style="stroke: #000000; stroke-width: 0.8"/>
      </g>
     </g>
     <g id="text_1">
      <!-- 0 -->
      <g transform="translate(66.890338 322.104312) scale(0.1 -0.1)">
       <defs>
        <path id="NanumGothic-30" d="M 3066 2093 
Q 3066 4102 1965 4102 
Q 864 4102 864 2093 
Q 864 77 1965 77 
Q 3066 77 3066 2093 
z
M 3526 2093 
Q 3526 -326 1965 -326 
Q 390 -326 390 2093 
Q 390 3098 698 3725 
Q 1088 4512 1965 4512 
Q 2829 4512 3226 3725 
Q 3373 3411 3449 3008 
Q 3526 2605 3526 2093 
z
" transform="scale(0.015625)"/>
       </defs>
       <use xlink:href="#NanumGothic-30"/>
      </g>
     </g>
    </g>
    <g id="xtick_2">
     <g id="line2d_2">
      <g>
       <use xlink:href="#m0e71f7d41b" x="144.401969" y="307.584" style="stroke: #000000; stroke-width: 0.8"/>
      </g>
     </g>
     <g id="text_2">
      <!-- 10000 -->
      <g transform="translate(129.253532 322.104312) scale(0.1 -0.1)">
       <defs>
        <path id="NanumGothic-31" d="M 2362 -211 
Q 2362 -301 2272 -301 
L 2010 -301 
Q 1920 -301 1920 -211 
L 1920 3949 
Q 1722 3782 1549 3635 
Q 1376 3488 1184 3322 
Q 1114 3264 1056 3334 
L 928 3488 
Q 909 3520 909 3555 
Q 909 3590 941 3616 
L 1933 4448 
Q 1958 4474 2010 4474 
L 2182 4474 
Q 2317 4474 2339 4451 
Q 2362 4429 2362 4294 
L 2362 -211 
z
" transform="scale(0.015625)"/>
       </defs>
       <use xlink:href="#NanumGothic-31"/>
       <use xlink:href="#NanumGothic-30" x="60.599991"/>
       <use xlink:href="#NanumGothic-30" x="121.199982"/>
       <use xlink:href="#NanumGothic-30" x="181.799973"/>
       <use xlink:href="#NanumGothic-30" x="242.399963"/>
      </g>
     </g>
    </g>
    <g id="xtick_3">
     <g id="line2d_3">
      <g>
       <use xlink:href="#m0e71f7d41b" x="218.883913" y="307.584" style="stroke: #000000; stroke-width: 0.8"/>
      </g>
     </g>
     <g id="text_3">
      <!-- 20000 -->
      <g transform="translate(203.735476 322.104312) scale(0.1 -0.1)">
       <defs>
        <path id="NanumGothic-32" d="M 576 -301 
Q 506 -301 470 -297 
Q 435 -294 419 -278 
Q 403 -262 400 -227 
Q 397 -192 397 -122 
L 403 19 
Q 403 102 454 154 
L 1510 1318 
Q 2688 2592 2688 3251 
Q 2688 3635 2432 3891 
Q 2182 4141 1811 4141 
Q 1293 4141 730 3853 
Q 640 3808 627 3891 
L 589 4102 
Q 570 4211 653 4237 
Q 979 4384 1241 4454 
Q 1504 4525 1779 4525 
Q 2394 4525 2758 4218 
Q 3168 3885 3168 3270 
Q 3168 3034 3053 2752 
Q 2938 2470 2733 2163 
Q 2605 1984 2371 1696 
Q 2138 1408 1837 1082 
Q 1613 838 1392 588 
Q 1171 339 947 96 
L 3187 96 
Q 3277 96 3277 6 
L 3277 -211 
Q 3277 -301 3187 -301 
L 576 -301 
z
" transform="scale(0.015625)"/>
       </defs>
       <use xlink:href="#NanumGothic-32"/>
       <use xlink:href="#NanumGothic-30" x="60.599991"/>
       <use xlink:href="#NanumGothic-30" x="121.199982"/>
       <use xlink:href="#NanumGothic-30" x="181.799973"/>
       <use xlink:href="#NanumGothic-30" x="242.399963"/>
      </g>
     </g>
    </g>
    <g id="xtick_4">
     <g id="line2d_4">
      <g>
       <use xlink:href="#m0e71f7d41b" x="293.365857" y="307.584" style="stroke: #000000; stroke-width: 0.8"/>
      </g>
     </g>
     <g id="text_4">
      <!-- 30000 -->
      <g transform="translate(278.21742 322.104312) scale(0.1 -0.1)">
       <defs>
        <path id="NanumGothic-33" d="M 493 -192 
Q 397 -166 410 -45 
L 435 205 
Q 448 282 538 243 
Q 806 134 1046 89 
Q 1286 45 1606 38 
Q 2112 32 2458 294 
Q 2861 563 2861 1082 
Q 2861 1990 1498 1990 
L 1165 1990 
Q 1082 1990 1082 2061 
L 1082 2298 
Q 1082 2381 1165 2381 
L 1197 2381 
Q 1882 2381 2266 2528 
Q 2848 2752 2848 3334 
Q 2848 3520 2749 3677 
Q 2650 3834 2483 3942 
Q 2330 4032 2138 4083 
Q 1946 4134 1734 4134 
Q 1517 4134 1254 4076 
Q 992 4019 749 3923 
Q 666 3891 653 3974 
L 627 4211 
Q 608 4301 710 4339 
Q 998 4435 1248 4480 
Q 1498 4525 1779 4525 
Q 2426 4525 2835 4250 
Q 3302 3936 3302 3334 
Q 3302 2906 2995 2592 
Q 2739 2317 2330 2189 
Q 2534 2163 2710 2080 
Q 2886 1997 3014 1850 
Q 3162 1690 3238 1488 
Q 3315 1286 3315 1043 
Q 3315 723 3184 464 
Q 3053 205 2810 19 
Q 2573 -154 2265 -253 
Q 1958 -352 1581 -346 
Q 1242 -339 995 -307 
Q 749 -275 493 -192 
z
" transform="scale(0.015625)"/>
       </defs>
       <use xlink:href="#NanumGothic-33"/>
       <use xlink:href="#NanumGothic-30" x="60.599991"/>
       <use xlink:href="#NanumGothic-30" x="121.199982"/>
       <use xlink:href="#NanumGothic-30" x="181.799973"/>
       <use xlink:href="#NanumGothic-30" x="242.399963"/>
      </g>
     </g>
    </g>
    <g id="xtick_5">
     <g id="line2d_5">
      <g>
       <use xlink:href="#m0e71f7d41b" x="367.847801" y="307.584" style="stroke: #000000; stroke-width: 0.8"/>
      </g>
     </g>
     <g id="text_5">
      <!-- 40000 -->
      <g transform="translate(352.699363 322.104312) scale(0.1 -0.1)">
       <defs>
        <path id="NanumGothic-34" d="M 2509 1216 
L 2509 4070 
Q 2035 3354 1568 2643 
Q 1101 1933 621 1216 
L 2509 1216 
z
M 2944 -211 
Q 2944 -301 2854 -301 
L 2598 -301 
Q 2509 -301 2509 -211 
L 2509 826 
L 397 826 
Q 262 826 240 848 
Q 218 870 218 1005 
L 218 1203 
Q 218 1261 224 1280 
Q 230 1299 262 1350 
L 2304 4397 
Q 2342 4454 2358 4464 
Q 2374 4474 2445 4474 
L 2765 4474 
Q 2899 4474 2921 4451 
Q 2944 4429 2944 4294 
L 2944 1216 
L 3578 1216 
Q 3667 1216 3667 1126 
L 3667 915 
Q 3667 826 3578 826 
L 2944 826 
L 2944 -211 
z
" transform="scale(0.015625)"/>
       </defs>
       <use xlink:href="#NanumGothic-34"/>
       <use xlink:href="#NanumGothic-30" x="60.599991"/>
       <use xlink:href="#NanumGothic-30" x="121.199982"/>
       <use xlink:href="#NanumGothic-30" x="181.799973"/>
       <use xlink:href="#NanumGothic-30" x="242.399963"/>
      </g>
     </g>
    </g>
    <g id="text_6">
     <!-- 전체_이용_거리 -->
     <g transform="translate(202.51 335.684) scale(0.1 -0.1)">
      <defs>
       <path id="NanumGothic-c804" d="M 3309 4038 
Q 3219 3770 3052 3494 
Q 2886 3219 2662 2950 
Q 2918 2650 3254 2384 
Q 3590 2118 3917 1946 
Q 4000 1907 3955 1824 
L 3808 1606 
Q 3789 1574 3750 1571 
Q 3712 1568 3680 1587 
Q 3354 1766 3018 2048 
Q 2682 2330 2394 2643 
Q 2029 2259 1593 1939 
Q 1158 1619 717 1414 
Q 685 1402 653 1392 
Q 621 1382 602 1414 
L 474 1638 
Q 454 1670 467 1705 
Q 480 1741 512 1754 
Q 1267 2138 1865 2707 
Q 2464 3277 2822 4013 
Q 2867 4102 2835 4140 
Q 2803 4179 2714 4179 
L 838 4179 
Q 762 4179 762 4262 
L 762 4486 
Q 762 4563 838 4563 
L 2886 4563 
Q 3219 4563 3315 4444 
Q 3411 4326 3309 4038 
z
M 4710 3296 
L 4710 4915 
Q 4710 5005 4800 5005 
L 5062 5005 
Q 5152 5005 5152 4915 
L 5152 781 
Q 5152 691 5062 691 
L 4800 691 
Q 4710 691 4710 781 
L 4710 2925 
L 3501 2925 
Q 3418 2925 3418 3002 
L 3418 3219 
Q 3418 3296 3501 3296 
L 4710 3296 
z
M 5350 -704 
Q 5350 -742 5318 -761 
Q 5286 -781 5254 -781 
L 2016 -781 
Q 1715 -781 1622 -669 
Q 1530 -557 1530 -294 
L 1530 922 
Q 1530 1011 1619 1011 
L 1882 1011 
Q 1971 1011 1971 922 
L 1971 -262 
Q 1971 -352 2000 -374 
Q 2029 -397 2118 -397 
L 5254 -397 
Q 5286 -397 5318 -419 
Q 5350 -442 5350 -474 
L 5350 -704 
z
" transform="scale(0.015625)"/>
       <path id="NanumGothic-ccb4" d="M 2835 3213 
Q 2726 2925 2582 2653 
Q 2438 2381 2259 2125 
Q 2509 1798 2800 1520 
Q 3091 1242 3379 1056 
Q 3450 1005 3386 934 
L 3226 730 
Q 3194 691 3168 691 
Q 3142 691 3091 730 
Q 2963 826 2822 947 
Q 2682 1069 2541 1209 
Q 2400 1350 2262 1500 
Q 2125 1651 2003 1798 
Q 1715 1453 1376 1158 
Q 1037 864 666 634 
Q 640 614 605 614 
Q 570 614 557 627 
L 397 832 
Q 378 864 390 899 
Q 403 934 429 954 
Q 774 1171 1078 1443 
Q 1382 1715 1632 2006 
Q 1882 2298 2064 2598 
Q 2246 2899 2349 3187 
Q 2413 3354 2240 3354 
L 685 3354 
Q 608 3354 608 3437 
L 608 3661 
Q 608 3738 698 3738 
L 2413 3738 
Q 2746 3738 2845 3619 
Q 2944 3501 2835 3213 
z
M 3808 2502 
L 3808 4806 
Q 3808 4896 3898 4896 
L 4141 4896 
Q 4230 4896 4230 4806 
L 4230 -563 
Q 4230 -653 4141 -653 
L 3898 -653 
Q 3808 -653 3808 -563 
L 3808 2118 
L 3021 2118 
Q 2982 2118 2953 2144 
Q 2925 2170 2925 2202 
L 2925 2419 
Q 2925 2458 2953 2480 
Q 2982 2502 3021 2502 
L 3808 2502 
z
M 5363 -806 
Q 5363 -896 5274 -896 
L 5030 -896 
Q 4941 -896 4941 -806 
L 4941 4915 
Q 4941 5005 5030 5005 
L 5274 5005 
Q 5363 5005 5363 4915 
L 5363 -806 
z
M 2381 4659 
Q 2477 4659 2477 4570 
L 2477 4365 
Q 2477 4269 2381 4269 
L 1184 4269 
Q 1088 4269 1088 4365 
L 1088 4570 
Q 1088 4659 1184 4659 
L 2381 4659 
z
" transform="scale(0.015625)"/>
       <path id="NanumGothic-5f" d="M 3392 -794 
Q 3462 -794 3472 -803 
Q 3482 -813 3482 -883 
L 3482 -1037 
Q 3482 -1107 3472 -1116 
Q 3462 -1126 3392 -1126 
L 154 -1126 
Q 83 -1126 73 -1116 
Q 64 -1107 64 -1037 
L 64 -883 
Q 64 -813 73 -803 
Q 83 -794 154 -794 
L 3392 -794 
z
" transform="scale(0.015625)"/>
       <path id="NanumGothic-c774" d="M 3654 2566 
Q 3654 2208 3568 1843 
Q 3482 1478 3296 1184 
Q 3110 890 2819 701 
Q 2528 512 2118 512 
Q 1696 512 1405 697 
Q 1114 883 938 1180 
Q 762 1478 685 1843 
Q 608 2208 608 2566 
Q 608 2944 685 3312 
Q 762 3680 938 3974 
Q 1114 4269 1405 4448 
Q 1696 4627 2118 4627 
Q 2528 4627 2819 4448 
Q 3110 4269 3296 3977 
Q 3482 3686 3568 3318 
Q 3654 2950 3654 2566 
z
M 3200 2573 
Q 3200 2867 3139 3168 
Q 3078 3469 2950 3709 
Q 2822 3949 2617 4099 
Q 2413 4250 2118 4250 
Q 1811 4250 1609 4099 
Q 1408 3949 1286 3709 
Q 1165 3469 1113 3168 
Q 1062 2867 1062 2573 
Q 1062 2291 1110 1993 
Q 1158 1696 1280 1449 
Q 1402 1203 1606 1046 
Q 1811 890 2118 890 
Q 2413 890 2617 1046 
Q 2822 1203 2950 1449 
Q 3078 1696 3139 1993 
Q 3200 2291 3200 2573 
z
M 5152 -806 
Q 5152 -896 5062 -896 
L 4800 -896 
Q 4710 -896 4710 -806 
L 4710 4915 
Q 4710 5005 4800 5005 
L 5062 5005 
Q 5152 5005 5152 4915 
L 5152 -806 
z
" transform="scale(0.015625)"/>
       <path id="NanumGothic-c6a9" d="M 5728 1978 
Q 5760 1978 5792 1955 
Q 5824 1933 5824 1894 
L 5824 1677 
Q 5824 1645 5792 1619 
Q 5760 1594 5728 1594 
L 288 1594 
Q 250 1594 221 1619 
Q 192 1645 192 1677 
L 192 1894 
Q 192 1933 221 1955 
Q 250 1978 288 1978 
L 1741 1978 
L 1741 3008 
Q 1434 3136 1226 3347 
Q 1018 3558 1018 3885 
Q 1018 4198 1219 4409 
Q 1421 4621 1718 4742 
Q 2016 4864 2365 4915 
Q 2714 4966 3008 4966 
Q 3309 4966 3657 4908 
Q 4006 4851 4304 4723 
Q 4602 4595 4800 4387 
Q 4998 4179 4998 3885 
Q 4998 3571 4790 3360 
Q 4582 3149 4269 3021 
L 4269 1978 
L 5728 1978 
z
M 4992 109 
Q 4992 -218 4787 -422 
Q 4582 -627 4281 -742 
Q 3981 -858 3632 -899 
Q 3283 -941 2995 -941 
Q 2803 -941 2582 -921 
Q 2362 -902 2141 -860 
Q 1920 -819 1715 -742 
Q 1510 -666 1353 -547 
Q 1197 -429 1101 -269 
Q 1005 -109 1005 109 
Q 1005 429 1209 630 
Q 1414 832 1715 947 
Q 2016 1062 2365 1107 
Q 2714 1152 2995 1152 
Q 3283 1152 3632 1110 
Q 3981 1069 4285 953 
Q 4589 838 4790 633 
Q 4992 429 4992 109 
z
M 3008 4563 
Q 2803 4563 2540 4537 
Q 2278 4512 2044 4435 
Q 1811 4358 1648 4224 
Q 1485 4090 1485 3878 
Q 1485 3667 1648 3532 
Q 1811 3398 2044 3321 
Q 2278 3245 2540 3219 
Q 2803 3194 3008 3194 
Q 3206 3194 3468 3219 
Q 3731 3245 3968 3321 
Q 4205 3398 4368 3532 
Q 4531 3667 4531 3878 
Q 4531 4090 4368 4224 
Q 4205 4358 3968 4435 
Q 3731 4512 3468 4537 
Q 3206 4563 3008 4563 
z
M 4525 102 
Q 4525 314 4352 438 
Q 4179 563 3936 633 
Q 3693 704 3433 726 
Q 3174 749 2995 749 
Q 2810 749 2550 726 
Q 2291 704 2051 633 
Q 1811 563 1641 438 
Q 1472 314 1472 102 
Q 1472 -102 1641 -230 
Q 1811 -358 2051 -425 
Q 2291 -493 2550 -515 
Q 2810 -538 2995 -538 
Q 3174 -538 3436 -515 
Q 3699 -493 3939 -425 
Q 4179 -358 4352 -230 
Q 4525 -102 4525 102 
z
M 3008 2797 
Q 2822 2797 2608 2813 
Q 2394 2829 2182 2880 
L 2182 1978 
L 3827 1978 
L 3827 2886 
Q 3616 2835 3405 2816 
Q 3194 2797 3008 2797 
z
" transform="scale(0.015625)"/>
       <path id="NanumGothic-ac70" d="M 4710 2701 
L 4710 4915 
Q 4710 5005 4800 5005 
L 5062 5005 
Q 5152 5005 5152 4915 
L 5152 -806 
Q 5152 -896 5062 -896 
L 4800 -896 
Q 4710 -896 4710 -806 
L 4710 2317 
L 3398 2317 
Q 3315 2317 3315 2394 
L 3315 2624 
Q 3315 2701 3398 2701 
L 4710 2701 
z
M 3392 4064 
Q 3360 3514 3174 2982 
Q 2989 2451 2659 1968 
Q 2330 1485 1866 1072 
Q 1402 659 813 346 
Q 730 301 691 365 
L 550 589 
Q 506 666 576 698 
Q 1120 979 1539 1340 
Q 1958 1702 2256 2124 
Q 2554 2547 2726 3014 
Q 2899 3482 2944 3974 
Q 2957 4070 2918 4105 
Q 2880 4141 2790 4141 
L 755 4141 
Q 678 4141 678 4224 
L 678 4448 
Q 678 4525 755 4525 
L 2912 4525 
Q 3213 4525 3309 4413 
Q 3405 4301 3392 4064 
z
" transform="scale(0.015625)"/>
       <path id="NanumGothic-b9ac" d="M 5152 -806 
Q 5152 -896 5062 -896 
L 4800 -896 
Q 4710 -896 4710 -806 
L 4710 4915 
Q 4710 5005 4800 5005 
L 5062 5005 
Q 5152 5005 5152 4915 
L 5152 -806 
z
M 1210 550 
Q 922 563 822 668 
Q 723 774 723 1043 
L 723 2317 
Q 723 2586 835 2678 
Q 947 2771 1235 2771 
L 2848 2771 
Q 2938 2771 2963 2796 
Q 2989 2822 2989 2918 
L 2989 3994 
Q 2989 4090 2966 4115 
Q 2944 4141 2854 4141 
L 838 4141 
Q 806 4141 777 4160 
Q 749 4179 749 4211 
L 749 4454 
Q 749 4486 777 4505 
Q 806 4525 838 4525 
L 2925 4525 
Q 3078 4525 3174 4502 
Q 3270 4480 3328 4429 
Q 3386 4378 3408 4285 
Q 3430 4192 3430 4058 
L 3430 2842 
Q 3430 2573 3318 2480 
Q 3206 2387 2918 2387 
L 1299 2387 
Q 1210 2387 1187 2361 
Q 1165 2336 1165 2240 
L 1165 1075 
Q 1165 928 1306 928 
Q 2067 915 2768 985 
Q 3469 1056 4128 1203 
Q 4218 1222 4237 1139 
L 4275 928 
Q 4294 845 4192 819 
Q 3853 742 3478 688 
Q 3104 634 2717 598 
Q 2330 563 1946 550 
Q 1562 538 1210 550 
z
" transform="scale(0.015625)"/>
      </defs>
      <use xlink:href="#NanumGothic-c804"/>
      <use xlink:href="#NanumGothic-ccb4" x="93.999985"/>
      <use xlink:href="#NanumGothic-5f" x="187.999969"/>
      <use xlink:href="#NanumGothic-c774" x="242.499954"/>
      <use xlink:href="#NanumGothic-c6a9" x="336.499939"/>
      <use xlink:href="#NanumGothic-5f" x="430.499924"/>
      <use xlink:href="#NanumGothic-ac70" x="484.999908"/>
      <use xlink:href="#NanumGothic-b9ac" x="578.999893"/>
     </g>
    </g>
   </g>
   <g id="matplotlib.axis_2">
    <g id="ytick_1">
     <g id="line2d_6">
      <defs>
       <path id="m8932356e76" d="M 0 0 
L -3.5 0 
" style="stroke: #000000; stroke-width: 0.8"/>
      </defs>
      <g>
       <use xlink:href="#m8932356e76" x="57.6" y="307.584" style="stroke: #000000; stroke-width: 0.8"/>
      </g>
     </g>
     <g id="text_7">
      <!-- 0 -->
      <g transform="translate(44.540625 311.344156) scale(0.1 -0.1)">
       <use xlink:href="#NanumGothic-30"/>
      </g>
     </g>
    </g>
    <g id="ytick_2">
     <g id="line2d_7">
      <g>
       <use xlink:href="#m8932356e76" x="57.6" y="250.631191" style="stroke: #000000; stroke-width: 0.8"/>
      </g>
     </g>
     <g id="text_8">
      <!-- 20 -->
      <g transform="translate(38.48125 254.391347) scale(0.1 -0.1)">
       <use xlink:href="#NanumGothic-32"/>
       <use xlink:href="#NanumGothic-30" x="60.599991"/>
      </g>
     </g>
    </g>
    <g id="ytick_3">
     <g id="line2d_8">
      <g>
       <use xlink:href="#m8932356e76" x="57.6" y="193.678382" style="stroke: #000000; stroke-width: 0.8"/>
      </g>
     </g>
     <g id="text_9">
      <!-- 40 -->
      <g transform="translate(38.48125 197.438538) scale(0.1 -0.1)">
       <use xlink:href="#NanumGothic-34"/>
       <use xlink:href="#NanumGothic-30" x="60.599991"/>
      </g>
     </g>
    </g>
    <g id="ytick_4">
     <g id="line2d_9">
      <g>
       <use xlink:href="#m8932356e76" x="57.6" y="136.725573" style="stroke: #000000; stroke-width: 0.8"/>
      </g>
     </g>
     <g id="text_10">
      <!-- 60 -->
      <g transform="translate(38.48125 140.485729) scale(0.1 -0.1)">
       <defs>
        <path id="NanumGothic-36" d="M 3078 1203 
Q 3078 1722 2810 2022 
Q 2541 2330 2042 2330 
Q 1786 2330 1581 2250 
Q 1376 2170 1232 2029 
Q 1088 1888 1008 1689 
Q 928 1491 928 1254 
Q 928 768 1197 435 
Q 1491 45 1984 45 
Q 2490 45 2797 384 
Q 3078 704 3078 1203 
z
M 3245 4013 
Q 3098 4064 2909 4096 
Q 2720 4128 2534 4128 
Q 1664 4128 1248 3501 
Q 896 2976 883 2061 
Q 1024 2317 1293 2496 
Q 1626 2733 2042 2733 
Q 2624 2733 3021 2426 
Q 3526 2035 3526 1235 
Q 3526 557 3110 109 
Q 2688 -346 1971 -346 
Q 435 -346 435 1920 
Q 435 3104 909 3770 
Q 1466 4525 2586 4525 
Q 2752 4525 2934 4499 
Q 3117 4474 3270 4429 
Q 3366 4410 3354 4314 
L 3341 4077 
Q 3341 4032 3309 4016 
Q 3277 4000 3245 4013 
z
" transform="scale(0.015625)"/>
       </defs>
       <use xlink:href="#NanumGothic-36"/>
       <use xlink:href="#NanumGothic-30" x="60.599991"/>
      </g>
     </g>
    </g>
    <g id="ytick_5">
     <g id="line2d_10">
      <g>
       <use xlink:href="#m8932356e76" x="57.6" y="79.772764" style="stroke: #000000; stroke-width: 0.8"/>
      </g>
     </g>
     <g id="text_11">
      <!-- 80 -->
      <g transform="translate(38.48125 83.53292) scale(0.1 -0.1)">
       <defs>
        <path id="NanumGothic-38" d="M 2944 3360 
Q 2944 3725 2624 3936 
Q 2342 4134 1965 4134 
Q 1555 4134 1274 3930 
Q 966 3725 966 3360 
Q 966 3027 1286 2758 
Q 1376 2675 1526 2579 
Q 1677 2483 1882 2387 
Q 1933 2362 1965 2365 
Q 1997 2368 2061 2400 
Q 2470 2624 2707 2870 
Q 2944 3117 2944 3360 
z
M 3104 960 
Q 3104 1312 2784 1574 
Q 2682 1658 2496 1760 
Q 2310 1862 2042 1984 
Q 1958 2029 1856 1984 
Q 1606 1888 1414 1782 
Q 1222 1677 1107 1587 
Q 979 1459 899 1289 
Q 819 1120 819 928 
Q 819 538 1184 288 
Q 1517 38 1965 38 
Q 2426 38 2739 256 
Q 3104 506 3104 960 
z
M 3552 928 
Q 3552 614 3421 364 
Q 3290 115 3046 -51 
Q 2835 -192 2560 -269 
Q 2285 -346 1965 -346 
Q 1651 -346 1379 -262 
Q 1107 -179 883 -32 
Q 640 141 505 387 
Q 371 634 371 928 
Q 371 1427 704 1741 
Q 960 1984 1491 2182 
Q 518 2662 518 3411 
Q 518 3680 652 3888 
Q 787 4096 1030 4262 
Q 1235 4390 1468 4457 
Q 1702 4525 1965 4525 
Q 2272 4525 2515 4457 
Q 2758 4390 2957 4256 
Q 3398 3949 3398 3411 
Q 3398 2746 2400 2182 
Q 2662 2086 2870 1971 
Q 3078 1856 3206 1741 
Q 3552 1434 3552 928 
z
" transform="scale(0.015625)"/>
       </defs>
       <use xlink:href="#NanumGothic-38"/>
       <use xlink:href="#NanumGothic-30" x="60.599991"/>
      </g>
     </g>
    </g>
    <g id="text_12">
     <!-- Count -->
     <g transform="translate(32.521875 188.792062) rotate(-90) scale(0.1 -0.1)">
      <defs>
       <path id="NanumGothic-43" d="M 3834 186 
Q 3872 198 3904 188 
Q 3936 179 3936 141 
L 3949 -109 
Q 3955 -192 3859 -224 
Q 3648 -294 3424 -326 
Q 3200 -358 2861 -358 
Q 1747 -358 1088 320 
Q 762 653 605 1094 
Q 448 1536 448 2093 
Q 448 3187 1107 3866 
Q 1779 4544 2861 4544 
Q 3014 4544 3139 4537 
Q 3264 4531 3382 4518 
Q 3501 4506 3616 4486 
Q 3731 4467 3859 4435 
Q 3955 4416 3949 4314 
L 3936 4058 
Q 3923 3968 3840 4000 
Q 3590 4083 3366 4112 
Q 3142 4141 2861 4141 
Q 1958 4141 1421 3565 
Q 922 3008 922 2093 
Q 922 1632 1043 1261 
Q 1165 890 1414 614 
Q 1933 38 2861 45 
Q 3130 51 3395 83 
Q 3661 115 3834 186 
z
" transform="scale(0.015625)"/>
       <path id="NanumGothic-6f" d="M 3130 1453 
Q 3130 1754 3050 2016 
Q 2970 2278 2829 2483 
Q 2496 2893 1965 2893 
Q 1696 2893 1481 2787 
Q 1267 2682 1101 2483 
Q 954 2278 874 2016 
Q 794 1754 794 1453 
Q 794 1146 874 883 
Q 954 621 1101 422 
Q 1440 6 1965 6 
Q 2234 6 2448 115 
Q 2662 224 2829 422 
Q 2970 621 3050 883 
Q 3130 1146 3130 1453 
z
M 3603 1453 
Q 3603 1075 3494 752 
Q 3386 429 3206 186 
Q 2982 -83 2672 -230 
Q 2362 -378 1965 -378 
Q 1568 -378 1254 -230 
Q 941 -83 717 186 
Q 538 429 432 752 
Q 326 1075 326 1453 
Q 326 2227 717 2720 
Q 1165 3277 1965 3277 
Q 2368 3277 2675 3139 
Q 2982 3002 3206 2720 
Q 3603 2214 3603 1453 
z
" transform="scale(0.015625)"/>
       <path id="NanumGothic-75" d="M 3347 -186 
Q 3347 -275 3258 -275 
L 3027 -275 
Q 2938 -275 2938 -186 
L 2938 346 
Q 2771 -38 2492 -208 
Q 2214 -378 1792 -378 
Q 595 -378 595 960 
L 595 3098 
Q 595 3187 685 3187 
L 941 3187 
Q 1030 3187 1030 3098 
L 1030 1075 
Q 1030 -13 1862 -13 
Q 2106 -13 2301 92 
Q 2496 198 2630 380 
Q 2765 563 2835 806 
Q 2906 1050 2899 1318 
L 2899 3098 
Q 2899 3187 2989 3187 
L 3245 3187 
Q 3334 3187 3334 3098 
L 3334 525 
Q 3334 314 3337 147 
Q 3341 -19 3347 -186 
z
" transform="scale(0.015625)"/>
       <path id="NanumGothic-6e" d="M 3334 -186 
Q 3334 -275 3245 -275 
L 2989 -275 
Q 2899 -275 2899 -186 
L 2899 1830 
Q 2899 2419 2688 2665 
Q 2477 2912 2093 2912 
Q 1574 2912 1302 2624 
Q 1030 2336 1030 1818 
L 1030 -186 
Q 1030 -275 941 -275 
L 685 -275 
Q 595 -275 595 -186 
L 595 2374 
Q 595 2650 592 2803 
Q 589 2957 576 3098 
Q 570 3142 598 3164 
Q 627 3187 666 3187 
L 896 3187 
Q 986 3187 986 3098 
L 986 2746 
Q 1165 3021 1417 3149 
Q 1670 3277 2112 3277 
Q 2720 3277 3027 2925 
Q 3334 2573 3334 1933 
L 3334 -186 
z
" transform="scale(0.015625)"/>
       <path id="NanumGothic-74" d="M 2208 -282 
Q 1939 -378 1677 -378 
Q 1158 -378 992 -38 
Q 883 192 883 774 
L 883 2816 
L 282 2816 
Q 192 2816 192 2906 
L 192 3098 
Q 192 3187 282 3187 
L 883 3187 
L 883 4051 
Q 883 4147 966 4147 
L 1235 4147 
Q 1318 4147 1318 4051 
L 1318 3187 
L 2029 3187 
Q 2118 3187 2118 3098 
L 2118 2906 
Q 2118 2816 2029 2816 
L 1318 2816 
L 1318 557 
Q 1318 -13 1779 -13 
Q 1958 -13 2182 64 
Q 2214 77 2243 64 
Q 2272 51 2272 13 
L 2285 -154 
Q 2298 -243 2208 -282 
z
" transform="scale(0.015625)"/>
      </defs>
      <use xlink:href="#NanumGothic-43"/>
      <use xlink:href="#NanumGothic-6f" x="67.199997"/>
      <use xlink:href="#NanumGothic-75" x="127.799988"/>
      <use xlink:href="#NanumGothic-6e" x="188.399979"/>
      <use xlink:href="#NanumGothic-74" x="248.999969"/>
     </g>
    </g>
   </g>
   <g id="patch_3">
    <path d="M 57.6 307.584 
L 57.6 41.472 
" style="fill: none; stroke: #000000; stroke-width: 0.8; stroke-linejoin: miter; stroke-linecap: square"/>
   </g>
   <g id="patch_4">
    <path d="M 414.72 307.584 
L 414.72 41.472 
" style="fill: none; stroke: #000000; stroke-width: 0.8; stroke-linejoin: miter; stroke-linecap: square"/>
   </g>
   <g id="patch_5">
    <path d="M 57.6 307.584 
L 414.72 307.584 
" style="fill: none; stroke: #000000; stroke-width: 0.8; stroke-linejoin: miter; stroke-linecap: square"/>
   </g>
   <g id="patch_6">
    <path d="M 57.6 41.472 
L 414.72 41.472 
" style="fill: none; stroke: #000000; stroke-width: 0.8; stroke-linejoin: miter; stroke-linecap: square"/>
   </g>
  </g>
 </g>
 <defs>
  <clipPath id="pb2c4bf4cb1">
   <rect x="57.6" y="41.472" width="357.12" height="266.112"/>
  </clipPath>
 </defs>
</svg>
